<svg width="553" height="413" fill="none" xmlns="http://www.w3.org/2000/svg"><g clip-path="url(#a)"><mask id="b" maskUnits="userSpaceOnUse" x="95.25" y="47.96" width="362" height="368" fill="#000"><path fill="#fff" d="M95.25 47.96h362v368h-362z"/><path fill-rule="evenodd" clip-rule="evenodd" d="M102.508 80.308c-6.258 12.282-6.258 28.359-6.258 60.514V414.36h360V140.822c0-32.155 0-48.232-6.258-60.514a57.41 57.41 0 0 0-25.09-25.09c-12.282-6.258-28.359-6.258-60.514-6.258H188.112c-32.155 0-48.232 0-60.514 6.258a57.41 57.41 0 0 0-25.09 25.09Z"/></mask><path fill-rule="evenodd" clip-rule="evenodd" d="M102.508 80.308c-6.258 12.282-6.258 28.359-6.258 60.514V414.36h360V140.822c0-32.155 0-48.232-6.258-60.514a57.41 57.41 0 0 0-25.09-25.09c-12.282-6.258-28.359-6.258-60.514-6.258H188.112c-32.155 0-48.232 0-60.514 6.258a57.41 57.41 0 0 0-25.09 25.09Z" fill="#F5F5F9"/><path d="m102.508 80.308-.891-.454.891.454ZM96.25 414.36h-1v1h1v-1Zm360 0v1h1v-1h-1Zm-6.258-334.052.891-.454-.891.454Zm-25.09-25.09-.454.89.454-.89Zm-297.304 0-.454-.891.454.89ZM97.25 140.822c0-16.094 0-28.104.779-37.628.777-9.512 2.325-16.455 5.37-22.432l-1.782-.908c-3.213 6.306-4.794 13.542-5.582 23.177-.786 9.624-.785 21.73-.785 37.791h2Zm0 273.538V140.822h-2V414.36h2Zm359-1h-360v2h360v-2Zm-1-272.538V414.36h2V140.822h-2Zm-6.149-60.06c3.045 5.977 4.593 12.92 5.37 22.432.778 9.524.779 21.534.779 37.628h2c0-16.061.001-28.167-.786-37.791-.787-9.635-2.368-16.871-5.581-23.177l-1.782.908ZM424.448 56.11a56.414 56.414 0 0 1 24.653 24.653l1.782-.908a58.412 58.412 0 0 0-25.527-25.527l-.908 1.782Zm-60.06-6.149c16.094 0 28.104 0 37.628.779 9.512.777 16.455 2.325 22.432 5.37l.908-1.782c-6.306-3.213-13.542-4.794-23.177-5.581-9.624-.787-21.73-.786-37.791-.786v2Zm-176.276 0h176.276v-2H188.112v2Zm-60.06 6.149c5.977-3.045 12.92-4.593 22.432-5.37 9.524-.778 21.534-.779 37.628-.779v-2c-16.061 0-28.167 0-37.791.785-9.635.788-16.871 2.369-23.177 5.582l.908 1.782Zm-24.653 24.653a56.414 56.414 0 0 1 24.653-24.653l-.908-1.782a58.412 58.412 0 0 0-25.527 25.527l1.782.908Z" fill="#DFE1F4" mask="url(#b)"/><g clip-path="url(#c)"><path d="M110 106.858C110 82.636 129.636 63 153.858 63h244.284C422.364 63 442 82.636 442 106.858V480H110V106.858Z" fill="#fff"/><path d="M315.402 224.5h132.383c7.985 0 14.458 6.473 14.458 14.459v182.787c0 7.985-6.473 14.459-14.458 14.459H315.402c-7.985 0-14.459-6.474-14.459-14.459V238.959c0-7.986 6.474-14.459 14.459-14.459Z" fill="#fff"/><path d="M315.402 224.5h132.383c7.985 0 14.458 6.473 14.458 14.459v182.787c0 7.985-6.473 14.459-14.458 14.459H315.402c-7.985 0-14.459-6.474-14.459-14.459V238.959c0-7.986 6.474-14.459 14.459-14.459Z" stroke="#DFE1F4"/><path d="M418.971 247.197h1.454a2.857 2.857 0 0 1-1.154 1.87c-.628.468-1.405.701-2.33.701-.755 0-1.425-.182-2.009-.547a3.635 3.635 0 0 1-1.322-1.432 4.24 4.24 0 0 1-.453-1.95c0-.711.139-1.354.417-1.928a3.302 3.302 0 0 1 1.249-1.395c.56-.351 1.214-.526 1.964-.526.565 0 1.076.097 1.534.292.463.19.84.45 1.132.781.292.331.516.711.672 1.14.161.428.241.884.241 1.366 0 .204-.009.394-.029.569h-5.763c.059.716.302 1.293.731 1.731.433.439.978.658 1.636.658.555 0 1.005-.115 1.351-.344.346-.228.572-.557.679-.986Zm-2.184-4.039c-.594 0-1.076.163-1.446.49-.37.321-.611.796-.723 1.424h4.28c-.044-.584-.253-1.049-.628-1.395-.375-.346-.869-.519-1.483-.519ZM408.717 249.768a3.89 3.89 0 0 1-1.585-.314 3.328 3.328 0 0 1-1.184-.847 3.959 3.959 0 0 1-.723-1.242 4.416 4.416 0 0 1-.248-1.482c0-.526.083-1.023.248-1.49a3.88 3.88 0 0 1 .723-1.235c.312-.36.707-.645 1.184-.854a3.89 3.89 0 0 1 1.585-.314c.905 0 1.689.25 2.352.752.662.501 1.044 1.169 1.146 2.001h-1.453c-.064-.423-.287-.774-.672-1.052a2.214 2.214 0 0 0-1.344-.423c-.726 0-1.286.246-1.68.738-.39.486-.584 1.112-.584 1.877 0 .759.197 1.385.591 1.877.395.492.952.737 1.673.737.511 0 .947-.124 1.307-.372.361-.248.602-.587.723-1.015h1.439a2.894 2.894 0 0 1-1.132 1.928c-.628.487-1.417.73-2.366.73ZM396.862 249.651v-7.537h1.454v1.329c.199-.467.509-.825.927-1.074.424-.253.921-.379 1.49-.379.848 0 1.527.28 2.038.84.516.555.774 1.283.774 2.183v4.638h-1.446v-4.353c0-.599-.163-1.081-.489-1.446-.321-.37-.748-.555-1.278-.555-.589 0-1.074.214-1.454.643-.375.428-.562.971-.562 1.629v4.082h-1.454ZM391.947 241.99c.969 0 1.75.258 2.344.774.594.511.891 1.186.891 2.023v4.864h-1.453v-1.227c-.18.409-.492.736-.935.979-.443.244-.95.365-1.519.365-.77 0-1.388-.209-1.856-.628-.467-.419-.701-.966-.701-1.643 0-.726.266-1.298.796-1.717.531-.418 1.244-.628 2.14-.628h1.571c.165 0 .289-.039.372-.117a.437.437 0 0 0 .132-.336c0-.467-.161-.84-.482-1.117-.322-.283-.77-.424-1.344-.424-.512 0-.942.141-1.293.424-.351.277-.538.611-.562 1.001h-1.344c.058-.745.392-1.364 1-1.856.609-.491 1.356-.737 2.243-.737Zm-.388 6.632c.682 0 1.213-.205 1.593-.614.384-.409.577-.964.577-1.665v-.176h-1.943c-.497 0-.894.117-1.191.351-.292.234-.438.55-.438.95 0 .345.129.625.387.84.258.209.597.314 1.015.314ZM383.248 249.768c-1.13 0-2.016-.36-2.659-1.081-.638-.72-.957-1.655-.957-2.804 0-1.15.319-2.084.957-2.805.638-.726 1.519-1.088 2.644-1.088a3 3 0 0 1 1.41.336c.433.224.762.521.986.891v-4.259h1.446v10.694h-1.446v-1.125a2.437 2.437 0 0 1-.986.905 2.998 2.998 0 0 1-1.395.336Zm.168-1.271c.701 0 1.261-.238 1.68-.715.423-.478.635-1.111.635-1.899 0-.789-.212-1.422-.635-1.899-.419-.478-.979-.716-1.68-.716-.692 0-1.249.241-1.673.723-.423.477-.635 1.108-.635 1.892 0 .784.212 1.417.635 1.899.424.477.981.715 1.673.715ZM371.518 249.651v-7.537h1.453v1.329c.2-.467.509-.825.928-1.074.423-.253.92-.379 1.49-.379.847 0 1.526.28 2.037.84.517.555.775 1.283.775 2.183v4.638h-1.446v-4.353c0-.599-.164-1.081-.49-1.446-.321-.37-.747-.555-1.278-.555-.589 0-1.074.214-1.454.643-.374.428-.562.971-.562 1.629v4.082h-1.453ZM368.647 247.197h1.453a2.853 2.853 0 0 1-1.154 1.87c-.628.468-1.404.701-2.33.701-.754 0-1.424-.182-2.008-.547a3.628 3.628 0 0 1-1.322-1.432 4.24 4.24 0 0 1-.453-1.95c0-.711.139-1.354.416-1.928a3.316 3.316 0 0 1 1.249-1.395c.56-.351 1.215-.526 1.965-.526.565 0 1.076.097 1.534.292.462.19.84.45 1.132.781.292.331.516.711.672 1.14.161.428.241.884.241 1.366 0 .204-.01.394-.029.569h-5.763c.058.716.302 1.293.73 1.731.434.439.979.658 1.636.658.556 0 1.006-.115 1.352-.344.345-.228.572-.557.679-.986Zm-2.184-4.039c-.594 0-1.076.163-1.446.49-.37.321-.611.796-.723 1.424h4.28c-.044-.584-.253-1.049-.628-1.395-.375-.346-.869-.519-1.483-.519ZM362.197 243.37h-2.227v3.769c0 .399.102.708.306.928.21.219.495.328.855.328h1.066v1.256h-1.183c-.769 0-1.378-.219-1.826-.657-.448-.443-.672-1.047-.672-1.811v-3.813h-3.308v3.769c0 .404.102.716.306.935.205.214.492.321.862.321h1.067v1.256h-1.184c-.769 0-1.378-.219-1.826-.657-.448-.443-.672-1.047-.672-1.811v-3.813h-1.541v-1.256h1.541v-2.367h1.447v2.367h3.308v-2.367h1.454v2.367h2.227v1.256ZM350.811 249.652l-1.001-2.666h-4.441l-1.008 2.666h-1.599l4.119-10.474h1.432l4.112 10.474h-1.614Zm-4.923-4.025h3.411l-1.702-4.499-1.709 4.499Z" fill="#2A2B3A"/><path d="M332.562 356.143c-1.695.45-3.444-.558-3.794-2.277a54.226 54.226 0 1 1 106.452-20.698 54.229 54.229 0 0 1-.378 21.604c-.38 1.712-2.145 2.69-3.833 2.211-1.687-.479-2.655-2.233-2.289-3.949a47.87 47.87 0 0 0-8.5-38.69 47.873 47.873 0 0 0-85.301 37.889c.337 1.722-.661 3.46-2.357 3.91Z" fill="#D9D9D9"/><path d="M332.56 356.133c-1.695.45-3.444-.558-3.794-2.277a54.24 54.24 0 0 1 7.035-39.364 54.22 54.22 0 0 1 57.11-24.546A54.213 54.213 0 0 1 435 332.048c.356 1.718-.854 3.334-2.59 3.588-1.735.254-3.337-.949-3.706-2.664a47.868 47.868 0 0 0-37.083-36.807 47.875 47.875 0 0 0-56.704 56.059c.337 1.722-.662 3.459-2.357 3.909Z" fill="#7A22A3"/><rect x="363.643" y="321.725" width="35.901" height="35.901" rx="17.95" fill="#F5F5F9"/><path d="M389.073 331.448h-14.959a.748.748 0 0 0-.748.748v14.959c0 .413.335.747.748.747h14.959a.747.747 0 0 0 .748-.747v-14.959a.748.748 0 0 0-.748-.748ZM386.081 329.952v2.992M377.106 329.952v2.992M373.366 335.936h16.455" stroke="#010314" stroke-width="1.496" stroke-linecap="round" stroke-linejoin="round"/><path d="m384.959 339.675-4.366 4.114-2.365-2.244" stroke="#010314" stroke-width="1.496" stroke-linecap="round" stroke-linejoin="round"/><path d="m421.835 403.001-.004-1.857h.246l2.346-2.622h1.798l-2.886 3.213h-.319l-1.181 1.266Zm-1.402 2.048v-8.703h1.538v8.703h-1.538Zm4.096 0-2.125-2.97 1.037-1.084 2.928 4.054h-1.84ZM416.229 405.177c-.655 0-1.22-.136-1.696-.408a2.766 2.766 0 0 1-1.092-1.164c-.255-.505-.382-1.098-.382-1.781 0-.671.127-1.261.382-1.768.258-.51.618-.906 1.079-1.19.462-.286 1.005-.429 1.628-.429.402 0 .782.065 1.139.196.36.127.677.325.952.595.277.269.496.611.654 1.028.159.414.238.907.238 1.479v.472h-5.35v-1.037h3.876a1.657 1.657 0 0 0-.192-.787 1.383 1.383 0 0 0-.522-.548 1.472 1.472 0 0 0-.774-.199c-.314 0-.59.076-.828.229-.238.15-.424.348-.557.595-.13.244-.197.511-.2.803v.905c0 .38.07.706.208.978.139.269.333.476.583.62.249.142.541.213.875.213.224 0 .426-.032.608-.094a1.34 1.34 0 0 0 .471-.285c.134-.124.234-.279.302-.463l1.437.162a2.244 2.244 0 0 1-.519.994 2.51 2.51 0 0 1-.969.654 3.71 3.71 0 0 1-1.351.23ZM409.135 405.177c-.654 0-1.22-.136-1.696-.408a2.766 2.766 0 0 1-1.092-1.164c-.255-.505-.382-1.098-.382-1.781 0-.671.127-1.261.382-1.768.258-.51.618-.906 1.08-1.19.461-.286 1.004-.429 1.627-.429.403 0 .782.065 1.139.196.36.127.677.325.952.595.278.269.496.611.655 1.028.158.414.237.907.237 1.479v.472h-5.35v-1.037h3.876a1.668 1.668 0 0 0-.191-.787 1.393 1.393 0 0 0-.523-.548 1.47 1.47 0 0 0-.773-.199c-.315 0-.591.076-.829.229-.238.15-.424.348-.557.595-.13.244-.197.511-.2.803v.905c0 .38.07.706.209.978.138.269.333.476.582.62.249.142.541.213.875.213.224 0 .427-.032.608-.094.181-.065.339-.16.472-.285.133-.124.233-.279.301-.463l1.437.162a2.244 2.244 0 0 1-.519.994 2.51 2.51 0 0 1-.969.654c-.393.153-.844.23-1.351.23ZM397.764 405.049l-1.844-6.527h1.568l1.147 4.59h.06l1.173-4.59h1.551l1.173 4.564h.064l1.13-4.564h1.572l-1.848 6.527h-1.602l-1.224-4.411h-.09l-1.223 4.411h-1.607ZM392.04 400.247l-1.402.153a1.14 1.14 0 0 0-.208-.399 1.044 1.044 0 0 0-.391-.302 1.437 1.437 0 0 0-.604-.114c-.32 0-.589.069-.807.208-.215.139-.322.318-.319.539a.567.567 0 0 0 .208.464c.145.119.383.216.714.293l1.114.238c.617.133 1.076.344 1.377.633.303.289.456.667.458 1.135-.002.41-.123.773-.361 1.088-.235.311-.562.555-.981.73-.42.176-.901.264-1.445.264-.799 0-1.442-.167-1.93-.501a2.02 2.02 0 0 1-.871-1.407l1.5-.145c.068.295.213.517.434.668.221.15.508.225.863.225.365 0 .658-.075.879-.225.224-.151.336-.336.336-.557a.578.578 0 0 0-.217-.463c-.141-.122-.362-.216-.663-.281l-1.113-.233c-.626-.131-1.089-.35-1.39-.659-.3-.312-.449-.706-.446-1.182-.003-.402.106-.75.327-1.045.224-.297.534-.527.931-.688.399-.165.86-.247 1.381-.247.765 0 1.367.163 1.806.489.442.326.715.766.82 1.321ZM383.761 405.05v-6.528h1.538v6.528h-1.538Zm.774-7.454a.898.898 0 0 1-.629-.242.783.783 0 0 1-.264-.591c0-.232.088-.429.264-.591a.888.888 0 0 1 .629-.246c.246 0 .456.082.628.246a.773.773 0 0 1 .264.591.783.783 0 0 1-.264.591.887.887 0 0 1-.628.242ZM377.96 401.225v3.824h-1.538v-8.703h1.504v3.285h.077c.153-.368.389-.658.709-.871.323-.215.734-.323 1.233-.323.453 0 .848.095 1.185.285.338.19.598.467.782.833.187.365.281.811.281 1.338v4.156h-1.539v-3.918c0-.439-.113-.78-.34-1.024-.223-.246-.538-.37-.943-.37-.272 0-.516.06-.731.179a1.252 1.252 0 0 0-.501.506 1.671 1.671 0 0 0-.179.803ZM374.995 398.522v1.19h-3.752v-1.19h3.752Zm-2.826-1.564h1.538v6.128c0 .207.032.366.094.476.065.108.15.181.255.221a.97.97 0 0 0 .348.06c.097 0 .185-.008.264-.022.082-.014.144-.027.187-.038l.259 1.203c-.082.028-.2.059-.353.093-.15.034-.334.054-.552.06a2.506 2.506 0 0 1-1.041-.175 1.613 1.613 0 0 1-.735-.603c-.179-.272-.267-.612-.264-1.02v-6.383ZM363.307 403.418v-.459c0-.337.07-.648.212-.931.145-.283.354-.511.629-.684.275-.173.608-.259.999-.259.402 0 .739.086 1.011.259.272.17.477.396.616.68.142.283.213.595.213.935v.459c0 .337-.071.647-.213.93-.141.284-.35.512-.624.684-.272.173-.607.26-1.003.26-.397 0-.733-.087-1.007-.26a1.68 1.68 0 0 1-.625-.684 2.08 2.08 0 0 1-.208-.93Zm1.109-.459v.459c0 .223.054.429.161.616.108.187.298.28.57.28.275 0 .463-.092.565-.276.105-.187.157-.394.157-.62v-.459c0-.227-.049-.434-.149-.621-.099-.19-.29-.284-.573-.284-.267 0-.455.094-.565.284a1.193 1.193 0 0 0-.166.621Zm-5.533-4.522v-.459c0-.34.072-.651.217-.935.144-.283.354-.51.628-.68.275-.172.608-.259.999-.259.4 0 .735.087 1.007.259.275.17.482.397.621.68.139.284.208.595.208.935v.459c0 .34-.071.652-.213.935a1.626 1.626 0 0 1-.62.676c-.275.17-.609.255-1.003.255-.399 0-.736-.085-1.011-.255a1.674 1.674 0 0 1-.621-.68 2.064 2.064 0 0 1-.212-.931Zm1.117-.459v.459c0 .227.053.434.158.621.107.184.297.276.569.276.272 0 .459-.092.561-.276.105-.187.157-.394.157-.621v-.459c0-.226-.049-.433-.148-.62-.1-.19-.289-.285-.57-.285-.269 0-.457.095-.565.285-.108.19-.162.396-.162.62Zm-.633 7.071 5.984-8.703h1.062l-5.983 8.703h-1.063ZM353.889 405.215c-.7 0-1.301-.177-1.802-.531-.499-.357-.883-.871-1.152-1.543-.266-.674-.399-1.485-.399-2.435.002-.949.137-1.756.403-2.422.269-.668.653-1.178 1.152-1.53.501-.351 1.101-.527 1.798-.527.696 0 1.296.176 1.797.527.502.352.885.862 1.152 1.53.269.669.403 1.476.403 2.422 0 .952-.134 1.765-.403 2.44-.267.671-.65 1.184-1.152 1.538-.498.354-1.098.531-1.797.531Zm0-1.33c.544 0 .973-.268 1.287-.803.317-.538.476-1.33.476-2.376 0-.691-.072-1.272-.217-1.742-.144-.47-.348-.824-.612-1.062a1.337 1.337 0 0 0-.934-.361c-.542 0-.969.269-1.284.807-.314.535-.473 1.322-.476 2.358-.003.695.067 1.278.208 1.751.145.473.349.83.612 1.071.264.238.577.357.94.357ZM345.907 405.215c-.7 0-1.301-.177-1.802-.531-.499-.357-.883-.871-1.152-1.543-.266-.674-.399-1.485-.399-2.435.003-.949.137-1.756.403-2.422.27-.668.653-1.178 1.152-1.53.502-.351 1.101-.527 1.798-.527.697 0 1.296.176 1.797.527.502.352.886.862 1.152 1.53.269.669.404 1.476.404 2.422 0 .952-.135 1.765-.404 2.44-.266.671-.65 1.184-1.152 1.538-.498.354-1.098.531-1.797.531Zm0-1.33c.544 0 .973-.268 1.287-.803.318-.538.476-1.33.476-2.376 0-.691-.072-1.272-.217-1.742-.144-.47-.348-.824-.611-1.062a1.341 1.341 0 0 0-.935-.361c-.541 0-.969.269-1.284.807-.314.535-.473 1.322-.476 2.358-.003.695.067 1.278.209 1.751.144.473.348.83.611 1.071.264.238.577.357.94.357ZM340.48 396.346v8.703h-1.577v-7.169h-.051l-2.035 1.301v-1.445l2.163-1.39h1.5Z" fill="#2A2B3A"/><path d="M352.52 415.763c0 2.478-1.172 4.487-2.618 4.487m2.618-4.487c0-2.479-1.172-4.488-2.618-4.488m2.618 4.488h2.243m-4.861 4.487c-1.446 0-2.618-2.009-2.618-4.487 0-2.479 1.172-4.488 2.618-4.488m0 8.975h2.244c1.444 0 2.617-2.01 2.617-4.487m-4.861-4.488h2.244c1.444 0 2.617 2.01 2.617 4.488m-2.912-2.992h2.244m-2.244 5.983h2.244" stroke="#5E6077" stroke-width=".935" stroke-linecap="round" stroke-linejoin="round"/><path d="m418.019 414.131-1.152.204a1.38 1.38 0 0 0-.229-.421 1.136 1.136 0 0 0-.417-.327 1.509 1.509 0 0 0-.659-.128c-.359 0-.66.081-.901.243-.24.158-.361.364-.361.616a.65.65 0 0 0 .242.527c.162.133.423.242.782.327l1.037.238c.601.139 1.049.353 1.343.642.295.289.442.664.442 1.126 0 .391-.113.739-.34 1.045-.224.303-.537.541-.939.714-.399.173-.863.259-1.39.259-.731 0-1.327-.155-1.789-.467-.461-.315-.745-.761-.85-1.339l1.229-.187c.076.32.233.563.471.727.238.161.548.242.931.242.416 0 .749-.086.999-.259.249-.176.373-.39.373-.642a.666.666 0 0 0-.229-.514c-.15-.139-.381-.244-.693-.314l-1.105-.243c-.609-.138-1.059-.359-1.351-.663-.289-.303-.433-.687-.433-1.151 0-.385.107-.723.323-1.012.215-.289.512-.514.892-.675.38-.165.814-.247 1.305-.247.705 0 1.26.153 1.665.459.406.303.673.71.804 1.22ZM411.827 412.537v1.02h-3.565v-1.02h3.565Zm-2.609-1.563h1.27v6.174c0 .247.037.432.111.557a.582.582 0 0 0 .285.251c.119.042.248.063.386.063.102 0 .192-.007.268-.021a7.57 7.57 0 0 0 .179-.034l.229 1.05a2.513 2.513 0 0 1-.824.136 2.24 2.24 0 0 1-.935-.179 1.594 1.594 0 0 1-.701-.578c-.179-.26-.268-.588-.268-.981v-6.438ZM402.899 415.189v3.876h-1.271v-6.528h1.22v1.063h.08c.15-.346.386-.624.706-.833.323-.21.729-.315 1.219-.315.445 0 .835.094 1.169.281.334.184.594.459.778.824.184.366.276.817.276 1.356v4.152h-1.271v-3.999c0-.473-.123-.843-.369-1.109-.247-.27-.585-.404-1.016-.404-.295 0-.557.064-.786.191a1.379 1.379 0 0 0-.54.561c-.13.244-.195.538-.195.884ZM398.648 419.065v-6.528h1.27v6.528h-1.27Zm.642-7.535a.807.807 0 0 1-.57-.221.717.717 0 0 1-.234-.535c0-.21.078-.388.234-.536a.802.802 0 0 1 .57-.225c.22 0 .409.075.565.225a.708.708 0 0 1 .238.536c0 .207-.08.385-.238.535a.792.792 0 0 1-.565.221ZM394.187 419.196c-.612 0-1.146-.14-1.602-.42a2.843 2.843 0 0 1-1.063-1.177c-.252-.505-.378-1.094-.378-1.768 0-.677.126-1.27.378-1.777a2.83 2.83 0 0 1 1.063-1.181c.456-.28.99-.421 1.602-.421.612 0 1.146.141 1.602.421.456.28.81.674 1.062 1.181s.378 1.1.378 1.777c0 .674-.126 1.263-.378 1.768a2.84 2.84 0 0 1-1.062 1.177c-.456.28-.99.42-1.602.42Zm.004-1.066c.397 0 .725-.105.986-.315.261-.209.453-.488.578-.837.127-.348.191-.732.191-1.152a3.33 3.33 0 0 0-.191-1.147 1.875 1.875 0 0 0-.578-.846c-.261-.212-.589-.318-.986-.318-.399 0-.731.106-.994.318a1.907 1.907 0 0 0-.583.846 3.403 3.403 0 0 0-.187 1.147c0 .42.063.804.187 1.152.128.349.322.628.583.837.263.21.595.315.994.315ZM384.052 421.512v-8.975h1.241v1.058h.106c.074-.136.18-.293.319-.471.138-.179.331-.335.578-.468.246-.136.572-.204.977-.204.527 0 .997.133 1.411.4.413.266.738.65.973 1.151.238.502.357 1.105.357 1.811 0 .705-.118 1.31-.353 1.814-.235.502-.558.888-.969 1.16-.41.27-.879.404-1.406.404-.397 0-.721-.066-.973-.2a1.844 1.844 0 0 1-.587-.467 3.478 3.478 0 0 1-.327-.476h-.077v3.463h-1.27Zm1.245-5.711c0 .459.066.861.2 1.207.133.345.325.616.578.811.252.193.561.289.926.289.38 0 .697-.1.952-.301.255-.204.447-.48.578-.829.133-.348.2-.741.2-1.177 0-.431-.066-.817-.196-1.16a1.77 1.77 0 0 0-.578-.812c-.255-.198-.574-.297-.956-.297-.368 0-.68.095-.935.284-.252.19-.443.455-.574.795-.13.34-.195.737-.195 1.19ZM376.173 419.209c-.672-.003-1.245-.18-1.721-.531-.476-.351-.84-.863-1.092-1.534-.252-.672-.379-1.48-.379-2.427 0-.943.127-1.749.379-2.418.255-.668.62-1.178 1.096-1.529.479-.352 1.051-.527 1.717-.527.666 0 1.237.177 1.712.531.476.351.84.861 1.093 1.53.255.665.382 1.47.382 2.413 0 .949-.126 1.76-.378 2.431-.252.669-.616 1.18-1.092 1.534-.476.352-1.049.527-1.717.527Zm0-1.134c.589 0 1.05-.288 1.381-.863.334-.575.501-1.407.501-2.495 0-.722-.076-1.333-.229-1.831-.15-.502-.367-.881-.65-1.139a1.423 1.423 0 0 0-1.003-.391c-.587 0-1.047.289-1.381.867-.335.578-.503 1.409-.506 2.494 0 .726.075 1.339.225 1.84.153.499.37.877.65 1.135.281.255.618.383 1.012.383ZM365.804 419.065v-.952l2.945-3.051c.314-.332.574-.622.778-.872.206-.252.361-.491.463-.718.102-.226.153-.467.153-.722 0-.289-.068-.538-.204-.748a1.337 1.337 0 0 0-.557-.489 1.772 1.772 0 0 0-.795-.174c-.311 0-.583.064-.816.191-.232.128-.41.308-.535.54a1.695 1.695 0 0 0-.187.816h-1.254c0-.53.122-.993.366-1.39a2.488 2.488 0 0 1 1.003-.922 3.094 3.094 0 0 1 1.449-.331c.547 0 1.028.109 1.445.327.419.215.746.51.981.884.236.371.353.79.353 1.258 0 .323-.061.638-.183.947-.119.309-.327.653-.624 1.033a17.6 17.6 0 0 1-1.241 1.372l-1.73 1.811v.064h3.918v1.126h-5.728ZM363.45 410.362v8.703h-1.318v-7.386h-.051l-2.082 1.36v-1.258l2.172-1.419h1.279Z" fill="#5E6077"/><path d="M144.793 224.5h132.382c7.986 0 14.459 6.473 14.459 14.459v182.787c0 7.985-6.473 14.459-14.459 14.459H144.793c-7.986 0-14.459-6.474-14.459-14.459V238.959c0-7.986 6.473-14.459 14.459-14.459Z" fill="#fff"/><path d="M144.793 224.5h132.382c7.986 0 14.459 6.473 14.459 14.459v182.787c0 7.985-6.473 14.459-14.459 14.459H144.793c-7.986 0-14.459-6.474-14.459-14.459V238.959c0-7.986 6.473-14.459 14.459-14.459Z" stroke="#DFE1F4"/><path d="M271.896 247.197h1.453a2.853 2.853 0 0 1-1.154 1.87c-.628.468-1.405.701-2.33.701-.755 0-1.424-.182-2.009-.547a3.635 3.635 0 0 1-1.322-1.432 4.24 4.24 0 0 1-.452-1.95c0-.711.138-1.354.416-1.928a3.309 3.309 0 0 1 1.249-1.395c.56-.351 1.215-.526 1.965-.526.564 0 1.076.097 1.533.292.463.19.84.45 1.133.781.292.331.516.711.672 1.14.16.428.241.884.241 1.366 0 .204-.01.394-.03.569h-5.762c.058.716.301 1.293.73 1.731.433.439.979.658 1.636.658.555 0 1.006-.115 1.351-.344.346-.228.572-.557.68-.986Zm-2.184-4.039c-.594 0-1.076.163-1.447.49-.37.321-.611.796-.723 1.424h4.28c-.043-.584-.253-1.049-.628-1.395-.375-.346-.869-.519-1.482-.519ZM253.438 249.651v-7.537h1.454v1.344c.161-.443.436-.799.825-1.067.395-.267.862-.401 1.403-.401.618 0 1.142.134 1.57.401.429.268.718.648.869 1.14.156-.438.46-.804.913-1.096a2.735 2.735 0 0 1 1.534-.445c.813 0 1.458.26 1.936.781.477.521.715 1.22.715 2.096v4.784h-1.453v-4.382c0-.604-.144-1.088-.431-1.453-.282-.366-.672-.548-1.169-.548-.569 0-1.02.182-1.351.548-.326.365-.489.849-.489 1.453v4.382h-1.446v-4.382c0-.604-.144-1.088-.431-1.453-.283-.366-.668-.548-1.154-.548-.57 0-1.021.182-1.352.548-.326.365-.489.849-.489 1.453v4.382h-1.454ZM250.064 238.958h1.614v1.826h-1.614v-1.826Zm.088 10.694v-7.538h1.453v7.538h-1.453ZM245.236 239.747h1.446v2.367h2.235v1.256h-2.235v3.769c0 .404.102.716.307.935.204.214.492.321.862.321h1.066v1.256h-1.183c-.769 0-1.378-.219-1.826-.657-.448-.443-.672-1.047-.672-1.811v-3.813h-1.541v-1.256h1.541v-2.367ZM232.374 249.651v-7.537h1.453v1.329c.2-.467.509-.825.928-1.074.423-.253.92-.379 1.49-.379.847 0 1.526.28 2.037.84.517.555.775 1.283.775 2.183v4.638h-1.447v-4.353c0-.599-.163-1.081-.489-1.446-.321-.37-.747-.555-1.278-.555-.589 0-1.074.214-1.454.643-.375.428-.562.971-.562 1.629v4.082h-1.453ZM229.861 248.673c-.725.73-1.653 1.095-2.782 1.095-1.13 0-2.06-.365-2.791-1.095-.73-.731-1.095-1.661-1.095-2.79 0-1.13.365-2.06 1.095-2.79.731-.736 1.661-1.103 2.791-1.103 1.124 0 2.05.367 2.775 1.103.73.73 1.096 1.66 1.096 2.79 0 1.129-.363 2.059-1.089 2.79Zm-2.782-.176c.711 0 1.288-.241 1.731-.723.443-.487.664-1.117.664-1.891 0-.775-.221-1.403-.664-1.885-.443-.487-1.02-.73-1.731-.73-.716 0-1.298.243-1.746.73-.443.482-.665 1.11-.665 1.885 0 .774.222 1.404.665 1.891.448.482 1.03.723 1.746.723ZM211.63 249.651v-7.537h1.454v1.329c.2-.467.509-.825.927-1.074.424-.253.921-.379 1.49-.379.848 0 1.527.28 2.038.84.516.555.774 1.283.774 2.183v4.638h-1.446v-4.353c0-.599-.163-1.081-.489-1.446-.321-.37-.747-.555-1.278-.555-.589 0-1.074.214-1.454.643-.375.428-.562.971-.562 1.629v4.082h-1.454ZM208.256 238.958h1.614v1.826h-1.614v-1.826Zm.088 10.694v-7.538h1.453v7.538h-1.453ZM199.156 249.768c-1.13 0-2.016-.36-2.659-1.081-.638-.72-.957-1.655-.957-2.804 0-1.15.319-2.084.957-2.805.638-.726 1.519-1.088 2.644-1.088a3 3 0 0 1 1.41.336c.433.224.762.521.986.891v-4.259h1.446v10.694h-1.446v-1.125a2.437 2.437 0 0 1-.986.905 2.998 2.998 0 0 1-1.395.336Zm.167-1.271c.702 0 1.262-.238 1.68-.715.424-.478.636-1.111.636-1.899 0-.789-.212-1.422-.636-1.899-.418-.478-.978-.716-1.68-.716-.691 0-1.248.241-1.672.723-.424.477-.636 1.108-.636 1.892 0 .784.212 1.417.636 1.899.424.477.981.715 1.672.715ZM193.1 247.197h1.454a2.857 2.857 0 0 1-1.154 1.87c-.629.468-1.405.701-2.33.701-.755 0-1.425-.182-2.009-.547a3.635 3.635 0 0 1-1.322-1.432 4.24 4.24 0 0 1-.453-1.95c0-.711.139-1.354.416-1.928a3.316 3.316 0 0 1 1.249-1.395c.56-.351 1.215-.526 1.965-.526.565 0 1.076.097 1.534.292.463.19.84.45 1.132.781.292.331.516.711.672 1.14.161.428.241.884.241 1.366 0 .204-.01.394-.029.569h-5.763c.059.716.302 1.293.73 1.731.434.439.979.658 1.637.658.555 0 1.005-.115 1.351-.344.346-.228.572-.557.679-.986Zm-2.184-4.039c-.594 0-1.076.163-1.446.49-.37.321-.611.796-.723 1.424h4.28c-.044-.584-.253-1.049-.628-1.395-.375-.346-.869-.519-1.483-.519ZM185.241 249.652l-2.71-3.609-.942.87v2.739h-1.468v-10.694h1.468v6.158l3.272-3.002h1.885l-3.17 2.943 3.455 4.595h-1.79ZM175.176 249.768a3.893 3.893 0 0 1-1.585-.314 3.324 3.324 0 0 1-1.183-.847 3.92 3.92 0 0 1-.723-1.242 4.391 4.391 0 0 1-.248-1.482c0-.526.082-1.023.248-1.49.17-.468.411-.879.723-1.235a3.28 3.28 0 0 1 1.183-.854 3.893 3.893 0 0 1 1.585-.314c.906 0 1.69.25 2.352.752.662.501 1.044 1.169 1.147 2.001h-1.454c-.063-.423-.287-.774-.672-1.052a2.21 2.21 0 0 0-1.344-.423c-.725 0-1.285.246-1.68.738-.389.486-.584 1.112-.584 1.877 0 .759.197 1.385.592 1.877.394.492.952.737 1.672.737.512 0 .947-.124 1.308-.372.36-.248.601-.587.723-1.015h1.439a2.898 2.898 0 0 1-1.132 1.928c-.629.487-1.417.73-2.367.73ZM169.355 248.673c-.725.73-1.653 1.095-2.783 1.095-1.129 0-2.059-.365-2.79-1.095-.73-.731-1.095-1.661-1.095-2.79 0-1.13.365-2.06 1.095-2.79.731-.736 1.661-1.103 2.79-1.103 1.125 0 2.05.367 2.776 1.103.73.73 1.095 1.66 1.095 2.79 0 1.129-.362 2.059-1.088 2.79Zm-2.783-.176c.711 0 1.288-.241 1.731-.723.443-.487.665-1.117.665-1.891 0-.775-.222-1.403-.665-1.885-.443-.487-1.02-.73-1.731-.73-.716 0-1.297.243-1.745.73-.444.482-.665 1.11-.665 1.885 0 .774.221 1.404.665 1.891.448.482 1.029.723 1.745.723ZM159.743 249.652v-10.694h1.454v10.694h-1.454ZM153.732 249.768a5.97 5.97 0 0 1-1.57-.204 4.848 4.848 0 0 1-2.52-1.709c-.317-.414-.568-.916-.753-1.505a6.596 6.596 0 0 1-.27-1.935c0-.702.093-1.347.278-1.936.185-.589.435-1.091.752-1.505a4.91 4.91 0 0 1 1.132-1.059 4.709 4.709 0 0 1 1.395-.642 5.632 5.632 0 0 1 1.556-.212c1.193 0 2.213.326 3.06.979.852.647 1.349 1.482 1.49 2.505h-1.628c-.093-.614-.414-1.118-.965-1.512-.55-.399-1.207-.599-1.972-.599-1.047 0-1.891.348-2.534 1.044-.643.697-.964 1.675-.964 2.937 0 1.261.321 2.239.964 2.936.643.696 1.487 1.044 2.534 1.044.779 0 1.446-.197 2.002-.591.56-.4.881-.906.964-1.52h1.57a3.533 3.533 0 0 1-.723 1.812c-.409.526-.945.937-1.607 1.234a5.372 5.372 0 0 1-2.191.438Z" fill="#2A2B3A"/><path d="M161.953 356.143c-1.695.45-3.444-.558-3.794-2.277a54.224 54.224 0 1 1 106.074.906c-.38 1.712-2.146 2.69-3.833 2.211-1.687-.479-2.656-2.233-2.289-3.949a47.87 47.87 0 0 0-46.41-57.864 47.872 47.872 0 0 0-47.391 57.063c.337 1.722-.662 3.46-2.357 3.91Z" fill="#D9D9D9"/><path d="M161.951 356.133c-1.696.45-3.444-.558-3.794-2.277a54.212 54.212 0 0 1 22.099-55.279 54.225 54.225 0 0 1 84.135 33.471c.355 1.718-.855 3.334-2.59 3.588-1.735.254-3.338-.949-3.707-2.664a47.845 47.845 0 0 0-6.052-15.055 47.88 47.88 0 0 0-50.377-21.771 47.874 47.874 0 0 0-37.357 56.078c.336 1.722-.662 3.459-2.357 3.909Z" fill="#7A22A3"/><rect x="193.034" y="321.725" width="35.901" height="35.901" rx="17.95" fill="#F5F5F9"/><path d="M210.984 347.902a8.227 8.227 0 1 0 0-16.454 8.227 8.227 0 0 0 0 16.454Z" stroke="#010314" stroke-width="1.496" stroke-miterlimit="10"/><path d="m210.984 339.675 3.702-3.702M208.74 328.456h4.488" stroke="#010314" stroke-width="1.496" stroke-linecap="round" stroke-linejoin="round"/><path d="m248.034 403.001-.005-1.857h.247l2.346-2.622h1.797l-2.885 3.213h-.319l-1.181 1.266Zm-1.403 2.048v-8.703h1.539v8.703h-1.539Zm4.097 0-2.125-2.97 1.037-1.084 2.928 4.054h-1.84ZM242.428 405.177c-.655 0-1.22-.136-1.696-.408a2.766 2.766 0 0 1-1.092-1.164c-.255-.505-.383-1.098-.383-1.781 0-.671.128-1.261.383-1.768.258-.51.617-.906 1.079-1.19.462-.286 1.004-.429 1.628-.429.402 0 .782.065 1.139.196.359.127.677.325.952.595.277.269.495.611.654 1.028.159.414.238.907.238 1.479v.472h-5.35v-1.037h3.875a1.645 1.645 0 0 0-.191-.787 1.393 1.393 0 0 0-.523-.548 1.468 1.468 0 0 0-.773-.199 1.5 1.5 0 0 0-.829.229c-.238.15-.423.348-.556.595a1.706 1.706 0 0 0-.2.803v.905c0 .38.069.706.208.978.139.269.333.476.582.62.25.142.541.213.876.213.224 0 .426-.032.607-.094.182-.065.339-.16.472-.285.133-.124.234-.279.302-.463l1.436.162c-.09.379-.263.711-.518.994a2.51 2.51 0 0 1-.969.654 3.71 3.71 0 0 1-1.351.23ZM235.334 405.177c-.655 0-1.22-.136-1.696-.408a2.766 2.766 0 0 1-1.092-1.164c-.255-.505-.382-1.098-.382-1.781 0-.671.127-1.261.382-1.768.258-.51.618-.906 1.079-1.19.462-.286 1.005-.429 1.628-.429.402 0 .782.065 1.139.196.36.127.677.325.952.595.277.269.496.611.654 1.028.159.414.238.907.238 1.479v.472h-5.35v-1.037h3.876a1.657 1.657 0 0 0-.192-.787 1.383 1.383 0 0 0-.522-.548 1.472 1.472 0 0 0-.774-.199c-.314 0-.59.076-.828.229-.238.15-.424.348-.557.595-.13.244-.197.511-.2.803v.905c0 .38.07.706.208.978.139.269.333.476.583.62.249.142.541.213.875.213.224 0 .426-.032.608-.094a1.34 1.34 0 0 0 .471-.285c.134-.124.234-.279.302-.463l1.436.162c-.09.379-.263.711-.518.994a2.51 2.51 0 0 1-.969.654 3.71 3.71 0 0 1-1.351.23ZM223.963 405.049l-1.844-6.527h1.568l1.147 4.59h.06l1.173-4.59h1.551l1.172 4.564h.064l1.131-4.564h1.572l-1.849 6.527h-1.602l-1.224-4.411h-.089l-1.224 4.411h-1.606ZM218.238 400.247l-1.402.153a1.14 1.14 0 0 0-.208-.399 1.036 1.036 0 0 0-.391-.302 1.434 1.434 0 0 0-.604-.114c-.32 0-.589.069-.807.208-.215.139-.321.318-.319.539a.568.568 0 0 0 .209.464c.144.119.382.216.714.293l1.113.238c.618.133 1.076.344 1.377.633.303.289.456.667.459 1.135-.003.41-.124.773-.361 1.088-.236.311-.563.555-.982.73-.419.176-.901.264-1.445.264-.799 0-1.442-.167-1.929-.501a2.013 2.013 0 0 1-.871-1.407l1.5-.145c.068.295.212.517.433.668.221.15.509.225.863.225.365 0 .658-.075.879-.225.224-.151.336-.336.336-.557a.578.578 0 0 0-.217-.463c-.141-.122-.362-.216-.663-.281l-1.113-.233c-.626-.131-1.089-.35-1.39-.659-.3-.312-.449-.706-.446-1.182-.003-.402.106-.75.327-1.045.224-.297.535-.527.931-.688.4-.165.86-.247 1.381-.247.765 0 1.367.163 1.806.489.442.326.716.766.82 1.321ZM209.959 405.05v-6.528h1.539v6.528h-1.539Zm.774-7.454a.898.898 0 0 1-.629-.242.783.783 0 0 1-.264-.591c0-.232.088-.429.264-.591a.888.888 0 0 1 .629-.246c.246 0 .456.082.629.246a.776.776 0 0 1 .263.591.785.785 0 0 1-.263.591.89.89 0 0 1-.629.242ZM204.159 401.225v3.824h-1.538v-8.703h1.504v3.285h.076c.153-.368.39-.658.71-.871.323-.215.734-.323 1.233-.323.453 0 .848.095 1.185.285.337.19.598.467.782.833.187.365.281.811.281 1.338v4.156h-1.539v-3.918c0-.439-.113-.78-.34-1.024-.224-.246-.538-.37-.943-.37-.272 0-.516.06-.731.179-.213.116-.38.285-.502.506-.119.221-.178.488-.178.803ZM201.194 398.522v1.19h-3.753v-1.19h3.753Zm-2.826-1.564h1.538v6.128c0 .207.031.366.094.476.065.108.15.181.255.221.104.04.221.06.348.06.096 0 .184-.008.264-.022.082-.014.144-.027.187-.038l.259 1.203c-.082.028-.2.059-.353.093-.15.034-.334.054-.552.06a2.508 2.508 0 0 1-1.042-.175 1.624 1.624 0 0 1-.735-.603c-.178-.272-.266-.612-.263-1.02v-6.383ZM189.505 403.418v-.459c0-.337.071-.648.213-.931.144-.283.354-.511.629-.684.275-.173.607-.259.998-.259.403 0 .74.086 1.012.259.272.17.477.396.616.68.142.283.212.595.212.935v.459c0 .337-.07.647-.212.93a1.68 1.68 0 0 1-.625.684c-.272.173-.606.26-1.003.26-.396 0-.732-.087-1.007-.26a1.67 1.67 0 0 1-.624-.684 2.08 2.08 0 0 1-.209-.93Zm1.109-.459v.459c0 .223.054.429.162.616.108.187.297.28.569.28.275 0 .464-.092.566-.276.104-.187.157-.394.157-.62v-.459c0-.227-.05-.434-.149-.621-.099-.19-.29-.284-.574-.284-.266 0-.454.094-.565.284-.11.187-.166.394-.166.621Zm-5.532-4.522v-.459c0-.34.072-.651.216-.935.145-.283.354-.51.629-.68.275-.172.608-.259.999-.259.399 0 .735.087 1.007.259.275.17.482.397.62.68.139.284.209.595.209.935v.459c0 .34-.071.652-.213.935a1.633 1.633 0 0 1-.62.676c-.275.17-.609.255-1.003.255-.4 0-.737-.085-1.012-.255a1.671 1.671 0 0 1-.62-.68 2.05 2.05 0 0 1-.212-.931Zm1.117-.459v.459c0 .227.053.434.157.621.108.184.298.276.57.276.272 0 .459-.092.561-.276.105-.187.157-.394.157-.621v-.459c0-.226-.05-.433-.149-.62-.099-.19-.289-.285-.569-.285-.269 0-.458.095-.565.285-.108.19-.162.396-.162.62Zm-.633 7.071 5.983-8.703h1.063l-5.984 8.703h-1.062ZM180.305 405.168a3.515 3.515 0 0 1-1.522-.318 2.717 2.717 0 0 1-1.066-.884 2.338 2.338 0 0 1-.417-1.284h1.53c.028.357.183.649.463.876.281.224.618.336 1.012.336.309 0 .583-.071.824-.213.241-.142.431-.338.57-.591.138-.252.206-.539.204-.862a1.747 1.747 0 0 0-.209-.876 1.551 1.551 0 0 0-.582-.599 1.627 1.627 0 0 0-.85-.221 2.007 2.007 0 0 0-.769.145 1.564 1.564 0 0 0-.599.391l-1.424-.234.455-4.488h5.048v1.318h-3.743l-.251 2.307h.051c.161-.19.389-.347.684-.471.295-.128.618-.192.969-.192.527 0 .997.125 1.411.374.413.247.739.587.977 1.02.238.434.357.929.357 1.487a2.97 2.97 0 0 1-.399 1.539c-.264.447-.631.8-1.101 1.058-.467.255-1.008.382-1.623.382ZM172.541 396.227a3.59 3.59 0 0 1 1.215.221c.397.142.754.374 1.071.697.317.32.57.75.757 1.288.187.538.28 1.204.28 1.997.003.748-.076 1.417-.238 2.006-.159.586-.387 1.082-.684 1.487a3.034 3.034 0 0 1-1.075.927c-.42.212-.891.318-1.415.318-.55 0-1.037-.107-1.462-.322a2.748 2.748 0 0 1-1.505-2.168h1.551c.08.346.241.621.485.825.246.201.557.301.931.301.603 0 1.068-.262 1.393-.786.326-.524.489-1.252.489-2.184h-.059a2.238 2.238 0 0 1-.54.646 2.463 2.463 0 0 1-.752.412 2.687 2.687 0 0 1-.884.145 2.63 2.63 0 0 1-1.377-.366 2.673 2.673 0 0 1-.965-1.003c-.235-.425-.354-.911-.357-1.457 0-.567.131-1.076.391-1.526.264-.453.631-.81 1.101-1.071.47-.263 1.02-.392 1.649-.387Zm.004 1.275c-.306 0-.582.075-.829.225a1.613 1.613 0 0 0-.578.604 1.733 1.733 0 0 0-.208.846c.003.308.072.589.208.841.139.252.328.452.566.599.24.147.515.221.824.221a1.566 1.566 0 0 0 1.16-.497 1.74 1.74 0 0 0 .349-.54c.085-.201.126-.413.123-.637 0-.298-.071-.572-.213-.825a1.636 1.636 0 0 0-.573-.607 1.513 1.513 0 0 0-.829-.23Z" fill="#2A2B3A"/><path d="M181.717 415.763c0 2.478-1.172 4.487-2.617 4.487m2.617-4.487c0-2.479-1.172-4.488-2.617-4.488m2.617 4.488h2.244m-4.861 4.487c-1.446 0-2.618-2.009-2.618-4.487 0-2.479 1.172-4.488 2.618-4.488m0 8.975h2.243c1.445 0 2.618-2.01 2.618-4.487m-4.861-4.488h2.243c1.445 0 2.618 2.01 2.618 4.488m-2.912-2.992h2.244m-2.244 5.983h2.244" stroke="#5E6077" stroke-width=".935" stroke-linecap="round" stroke-linejoin="round"/><path d="m247.602 414.131-1.152.204a1.359 1.359 0 0 0-.229-.421 1.14 1.14 0 0 0-.416-.327 1.512 1.512 0 0 0-.659-.128c-.36 0-.66.081-.901.243-.241.158-.361.364-.361.616 0 .218.08.394.242.527.161.133.422.242.782.327l1.037.238c.6.139 1.048.353 1.343.642.294.289.442.664.442 1.126 0 .391-.114.739-.34 1.045-.224.303-.537.541-.94.714-.399.173-.862.259-1.389.259-.731 0-1.327-.155-1.789-.467-.462-.315-.745-.761-.85-1.339l1.228-.187c.076.32.234.563.472.727.238.161.548.242.93.242.417 0 .75-.086.999-.259.249-.176.374-.39.374-.642a.67.67 0 0 0-.229-.514c-.151-.139-.382-.244-.693-.314l-1.105-.243c-.609-.138-1.06-.359-1.351-.663-.289-.303-.434-.687-.434-1.151 0-.385.108-.723.323-1.012a2.11 2.11 0 0 1 .892-.675c.38-.165.815-.247 1.305-.247.706 0 1.261.153 1.666.459.405.303.673.71.803 1.22ZM241.41 412.537v1.02h-3.565v-1.02h3.565Zm-2.609-1.563h1.271v6.174c0 .247.036.432.11.557a.582.582 0 0 0 .285.251c.119.042.248.063.386.063.102 0 .192-.007.268-.021a7.57 7.57 0 0 0 .179-.034l.229 1.05a2.513 2.513 0 0 1-.824.136 2.24 2.24 0 0 1-.935-.179 1.594 1.594 0 0 1-.701-.578c-.179-.26-.268-.588-.268-.981v-6.438ZM232.482 415.189v3.876h-1.271v-6.528h1.22v1.063h.081a1.86 1.86 0 0 1 .705-.833c.323-.21.73-.315 1.22-.315.445 0 .834.094 1.168.281.335.184.594.459.778.824.184.366.276.817.276 1.356v4.152h-1.27v-3.999c0-.473-.123-.843-.37-1.109-.246-.27-.585-.404-1.016-.404a1.6 1.6 0 0 0-.786.191 1.383 1.383 0 0 0-.539.561c-.131.244-.196.538-.196.884ZM228.231 419.065v-6.528h1.271v6.528h-1.271Zm.642-7.535a.803.803 0 0 1-.569-.221.717.717 0 0 1-.234-.535c0-.21.078-.388.234-.536a.798.798 0 0 1 .569-.225c.221 0 .409.075.565.225a.704.704 0 0 1 .238.536.71.71 0 0 1-.238.535.79.79 0 0 1-.565.221ZM223.77 419.196c-.612 0-1.146-.14-1.602-.42a2.84 2.84 0 0 1-1.062-1.177c-.252-.505-.378-1.094-.378-1.768 0-.677.126-1.27.378-1.777a2.827 2.827 0 0 1 1.062-1.181c.456-.28.99-.421 1.602-.421.612 0 1.146.141 1.602.421.456.28.811.674 1.063 1.181.252.507.378 1.1.378 1.777 0 .674-.126 1.263-.378 1.768a2.843 2.843 0 0 1-1.063 1.177c-.456.28-.99.42-1.602.42Zm.004-1.066c.397 0 .726-.105.986-.315.261-.209.454-.488.578-.837.128-.348.192-.732.192-1.152 0-.416-.064-.798-.192-1.147a1.867 1.867 0 0 0-.578-.846c-.26-.212-.589-.318-.986-.318-.399 0-.73.106-.994.318a1.897 1.897 0 0 0-.582.846 3.378 3.378 0 0 0-.187 1.147c0 .42.062.804.187 1.152.127.349.321.628.582.837.264.21.595.315.994.315ZM213.635 421.512v-8.975h1.241v1.058h.106c.074-.136.18-.293.319-.471.139-.179.332-.335.578-.468.247-.136.572-.204.977-.204.527 0 .998.133 1.411.4.414.266.738.65.973 1.151.238.502.357 1.105.357 1.811 0 .705-.117 1.31-.352 1.814-.235.502-.558.888-.969 1.16-.411.27-.88.404-1.407.404-.396 0-.721-.066-.973-.2a1.84 1.84 0 0 1-.586-.467 3.59 3.59 0 0 1-.328-.476h-.076v3.463h-1.271Zm1.245-5.711c0 .459.067.861.2 1.207.133.345.326.616.578.811.252.193.561.289.926.289.38 0 .697-.1.952-.301.255-.204.448-.48.578-.829.133-.348.2-.741.2-1.177 0-.431-.065-.817-.195-1.16a1.784 1.784 0 0 0-.578-.812c-.255-.198-.574-.297-.957-.297-.368 0-.679.095-.934.284-.253.19-.444.455-.574.795-.13.34-.196.737-.196 1.19ZM205.756 419.209c-.671-.003-1.245-.18-1.721-.531-.476-.351-.84-.863-1.092-1.534-.252-.672-.378-1.48-.378-2.427 0-.943.126-1.749.378-2.418.255-.668.621-1.178 1.097-1.529.478-.352 1.051-.527 1.716-.527.666 0 1.237.177 1.713.531.476.351.84.861 1.092 1.53.255.665.383 1.47.383 2.413 0 .949-.127 1.76-.379 2.431-.252.669-.616 1.18-1.092 1.534-.476.352-1.048.527-1.717.527Zm0-1.134c.59 0 1.05-.288 1.381-.863.335-.575.502-1.407.502-2.495 0-.722-.077-1.333-.23-1.831-.15-.502-.366-.881-.65-1.139a1.42 1.42 0 0 0-1.003-.391c-.586 0-1.046.289-1.381.867-.334.578-.503 1.409-.505 2.494 0 .726.075 1.339.225 1.84.153.499.37.877.65 1.135.28.255.618.383 1.011.383ZM198.032 419.209c-.672-.003-1.245-.18-1.721-.531-.476-.351-.84-.863-1.092-1.534-.253-.672-.379-1.48-.379-2.427 0-.943.126-1.749.379-2.418.255-.668.62-1.178 1.096-1.529.479-.352 1.051-.527 1.717-.527.666 0 1.236.177 1.712.531.476.351.84.861 1.092 1.53.255.665.383 1.47.383 2.413 0 .949-.126 1.76-.378 2.431-.252.669-.616 1.18-1.092 1.534-.476.352-1.049.527-1.717.527Zm0-1.134c.589 0 1.049-.288 1.381-.863.334-.575.501-1.407.501-2.495 0-.722-.076-1.333-.229-1.831-.15-.502-.367-.881-.65-1.139a1.423 1.423 0 0 0-1.003-.391c-.587 0-1.047.289-1.381.867-.335.578-.503 1.409-.506 2.494 0 .726.075 1.339.225 1.84.153.499.37.877.65 1.135.281.255.618.383 1.012.383ZM192.647 410.362v8.703h-1.317v-7.386h-.051l-2.082 1.36v-1.258l2.171-1.419h1.279Z" fill="#5E6077"/><path d="M219.971 159.562c-1.511 0-2.696-.481-3.555-1.445-.853-.963-1.279-2.213-1.279-3.75 0-1.536.426-2.786 1.279-3.75.853-.97 2.031-1.455 3.535-1.455.684 0 1.312.15 1.885.449.579.3 1.019.697 1.318 1.192v-5.694h1.934v14.297h-1.934v-1.504c-.299.502-.739.905-1.318 1.211-.579.3-1.201.449-1.865.449Zm.224-1.699c.938 0 1.687-.319 2.246-.957.567-.638.85-1.484.85-2.539 0-1.055-.283-1.901-.85-2.539-.559-.638-1.308-.957-2.246-.957-.924 0-1.67.322-2.236.967-.566.638-.85 1.481-.85 2.529 0 1.048.284 1.895.85 2.539.566.638 1.312.957 2.236.957ZM214.541 151.008h-1.465c-1.621 0-2.431 1.279-2.431 3.838v4.56h-1.944v-10.078h1.944v1.934c.227-.671.553-1.159.976-1.465.43-.313.996-.469 1.699-.469h1.221v1.68ZM202.129 149.162c1.295 0 2.34.345 3.135 1.035.794.684 1.191 1.586 1.191 2.705v6.504h-1.943v-1.64c-.241.546-.658.983-1.25 1.308-.593.326-1.27.488-2.032.488-1.028 0-1.855-.279-2.48-.839-.625-.56-.938-1.293-.938-2.198 0-.97.355-1.735 1.065-2.295.71-.559 1.663-.839 2.861-.839h2.1c.221 0 .387-.052.498-.157a.587.587 0 0 0 .176-.449c0-.625-.215-1.123-.645-1.494-.429-.378-1.028-.566-1.797-.566-.683 0-1.259.188-1.728.566-.469.371-.72.817-.752 1.338h-1.797c.078-.996.524-1.823 1.338-2.481.814-.657 1.813-.986 2.998-.986Zm-.518 8.867c.912 0 1.621-.273 2.129-.82.515-.547.772-1.289.772-2.227v-.234h-2.598c-.664 0-1.195.156-1.592.469-.39.312-.586.735-.586 1.269 0 .463.173.837.518 1.123.345.28.797.42 1.357.42ZM194.893 158.098c-.97.976-2.211 1.464-3.721 1.464-1.511 0-2.754-.488-3.731-1.464-.976-.977-1.464-2.22-1.464-3.731 0-1.51.488-2.754 1.464-3.73.977-.983 2.22-1.475 3.731-1.475 1.504 0 2.741.492 3.711 1.475.976.976 1.465 2.22 1.465 3.73 0 1.511-.485 2.754-1.455 3.731Zm-3.721-.235c.95 0 1.722-.322 2.314-.967.593-.651.889-1.494.889-2.529s-.296-1.875-.889-2.519c-.592-.651-1.364-.977-2.314-.977-.957 0-1.735.326-2.334.977-.593.644-.889 1.484-.889 2.519 0 1.035.296 1.878.889 2.529.599.645 1.377.967 2.334.967ZM179.795 159.562a3.995 3.995 0 0 1-1.865-.449c-.573-.306-1.003-.709-1.289-1.211v1.504h-1.944v-14.297h1.944v5.694c.293-.495.726-.892 1.298-1.192a4.015 4.015 0 0 1 1.885-.449c1.504 0 2.683.485 3.535 1.455.853.964 1.28 2.214 1.28 3.75 0 1.537-.43 2.787-1.289 3.75-.86.964-2.045 1.445-3.555 1.445Zm-.215-1.699c.931 0 1.68-.319 2.246-.957.567-.644.85-1.491.85-2.539s-.283-1.891-.85-2.529c-.566-.645-1.315-.967-2.246-.967-.937 0-1.689.319-2.256.957-.566.638-.849 1.484-.849 2.539 0 1.055.283 1.901.849 2.539.567.638 1.319.957 2.256.957ZM163.174 159.406v-14.297h1.943v5.996a2.967 2.967 0 0 1 1.25-1.435c.567-.339 1.231-.508 1.992-.508 1.133 0 2.041.374 2.725 1.123.69.742 1.035 1.716 1.035 2.92v6.201h-1.943v-5.82c0-.801-.218-1.445-.655-1.934-.429-.494-.999-.742-1.709-.742-.787 0-1.435.287-1.943.86-.501.572-.752 1.298-.752 2.177v5.459h-1.943ZM157.275 159.562c-1.185 0-2.145-.305-2.88-.917-.73-.619-1.127-1.459-1.192-2.52h1.817c.058.579.286 1.029.683 1.348.397.312.921.468 1.572.468.567 0 1.026-.13 1.377-.39.352-.261.528-.583.528-.967 0-.319-.082-.579-.244-.781a1.342 1.342 0 0 0-.655-.449 7.614 7.614 0 0 0-.918-.245c-.338-.071-.687-.13-1.045-.175a5.044 5.044 0 0 1-1.054-.254 4.706 4.706 0 0 1-.918-.469c-.267-.189-.482-.466-.645-.83-.163-.365-.244-.804-.244-1.319 0-.865.332-1.565.996-2.099.671-.534 1.533-.801 2.588-.801 1.139 0 2.067.29 2.783.869.716.58 1.1 1.345 1.153 2.295h-1.817c-.065-.534-.312-.937-.742-1.211a2.491 2.491 0 0 0-1.377-.41c-.521 0-.941.121-1.26.361a1.107 1.107 0 0 0-.478.938c0 .332.104.596.312.791.215.195.492.332.83.41.339.072.713.134 1.123.186a8.06 8.06 0 0 1 1.231.234c.41.104.784.254 1.123.449.338.189.612.492.82.908.215.417.322.938.322 1.563 0 .918-.348 1.65-1.044 2.197-.691.547-1.605.82-2.745.82ZM147.168 149.162c1.296 0 2.34.345 3.135 1.035.794.684 1.191 1.586 1.191 2.705v6.504h-1.943v-1.64c-.241.546-.658.983-1.25 1.308-.593.326-1.27.488-2.031.488-1.029 0-1.856-.279-2.481-.839-.625-.56-.937-1.293-.937-2.198 0-.97.354-1.735 1.064-2.295.71-.559 1.663-.839 2.861-.839h2.1c.221 0 .387-.052.498-.157a.587.587 0 0 0 .176-.449c0-.625-.215-1.123-.645-1.494-.429-.378-1.028-.566-1.797-.566-.683 0-1.259.188-1.728.566-.469.371-.72.817-.752 1.338h-1.797c.078-.996.524-1.823 1.338-2.481.814-.657 1.813-.986 2.998-.986Zm-.518 8.867c.912 0 1.621-.273 2.129-.82.515-.547.772-1.289.772-2.227v-.234h-2.598c-.664 0-1.195.156-1.592.469-.39.312-.586.735-.586 1.269 0 .463.173.837.518 1.123.345.28.797.42 1.357.42ZM129.834 159.406v-14.004h4.307c.983 0 1.897.153 2.744.459a6.72 6.72 0 0 1 2.246 1.328c.644.573 1.149 1.309 1.514 2.207.371.892.556 1.895.556 3.008 0 1.114-.185 2.119-.556 3.018-.365.892-.87 1.627-1.514 2.207a6.799 6.799 0 0 1-2.246 1.318 8.014 8.014 0 0 1-2.744.459h-4.307Zm2.08-1.836h2.1c.67 0 1.298-.097 1.884-.293a4.825 4.825 0 0 0 1.602-.888c.482-.404.863-.944 1.143-1.621.28-.684.419-1.472.419-2.364a6.34 6.34 0 0 0-.283-1.953c-.182-.586-.433-1.074-.752-1.465a4.305 4.305 0 0 0-1.123-.986 4.648 4.648 0 0 0-1.367-.576 6.433 6.433 0 0 0-1.523-.176h-2.1v10.322Z" fill="#2A2B3A"/><rect x="295.354" y="135.906" width="82.575" height="32" rx="16" fill="#F5F5F9"/><path d="M343.172 156.177c-.821-.003-1.523-.22-2.105-.649-.582-.43-1.027-1.055-1.335-1.876-.308-.821-.462-1.81-.462-2.967 0-1.153.154-2.139.462-2.956.312-.818.759-1.441 1.34-1.871.586-.429 1.286-.644 2.1-.644.814 0 1.512.216 2.094.649.581.43 1.027 1.053 1.335 1.871.312.814.468 1.798.468 2.951 0 1.161-.155 2.151-.463 2.972-.308.818-.753 1.443-1.335 1.876-.582.429-1.282.644-2.099.644Zm0-1.387c.72 0 1.283-.352 1.688-1.055.409-.703.613-1.72.613-3.05 0-.883-.093-1.63-.28-2.239-.184-.613-.449-1.077-.795-1.393a1.743 1.743 0 0 0-1.226-.478c-.717 0-1.28.354-1.689 1.06-.409.707-.615 1.724-.618 3.05 0 .887.091 1.637.275 2.25.187.61.452 1.072.795 1.387.343.312.755.468 1.237.468ZM333.727 156.177c-.821-.003-1.522-.22-2.104-.649-.582-.43-1.027-1.055-1.335-1.876-.309-.821-.463-1.81-.463-2.967 0-1.153.154-2.139.463-2.956.311-.818.758-1.441 1.34-1.871.586-.429 1.285-.644 2.099-.644.814 0 1.512.216 2.094.649.582.43 1.027 1.053 1.336 1.871.311.814.467 1.798.467 2.951 0 1.161-.154 2.151-.462 2.972-.309.818-.754 1.443-1.336 1.876-.582.429-1.281.644-2.099.644Zm0-1.387c.721 0 1.284-.352 1.689-1.055.409-.703.613-1.72.613-3.05 0-.883-.093-1.63-.281-2.239-.183-.613-.448-1.077-.794-1.393a1.744 1.744 0 0 0-1.227-.478c-.717 0-1.28.354-1.688 1.06-.409.707-.615 1.724-.619 3.05 0 .887.092 1.637.276 2.25.187.61.452 1.072.795 1.387.343.312.755.468 1.236.468ZM324.462 156.146c-.652 0-1.237-.125-1.757-.374a3.189 3.189 0 0 1-1.236-1.039 2.74 2.74 0 0 1-.494-1.507h1.559c.038.457.241.833.608 1.128.367.294.807.441 1.32.441.408 0 .77-.093 1.085-.28.319-.191.569-.452.749-.785.183-.333.275-.712.275-1.138 0-.433-.093-.819-.281-1.159a2.074 2.074 0 0 0-.774-.8 2.188 2.188 0 0 0-1.122-.296c-.322 0-.646.056-.972.166a2.256 2.256 0 0 0-.789.437l-1.471-.218.598-5.363h5.85v1.377h-4.515l-.338 2.978h.063c.207-.201.483-.369.826-.504a3.034 3.034 0 0 1 1.112-.203c.647 0 1.224.154 1.73.462.509.309.909.73 1.2 1.263.295.53.44 1.14.437 1.829.003.689-.153 1.304-.468 1.844a3.39 3.39 0 0 1-1.299 1.279c-.551.308-1.183.462-1.896.462ZM318.947 154.546l-.078.566c-.052.416-.14.849-.265 1.299-.121.454-.247.875-.379 1.263-.128.388-.234.696-.317.925h-1.101c.045-.215.107-.506.187-.873.079-.364.157-.771.234-1.221.076-.451.133-.91.171-1.377l.052-.582h1.496ZM314.641 145.359v10.642h-1.61v-9.031h-.063l-2.546 1.663v-1.538l2.655-1.736h1.564Z" fill="#2A2B3A"/><path d="M359.218 146.051c1.493 0 2.703 2.622 2.703 5.855m-2.703-5.855c-1.492 0-2.702 2.622-2.702 5.855 0 3.234 1.21 5.855 2.702 5.855m0-11.71h2.703c1.351 0 2.702 2.252 2.702 5.855m-2.702 0c0 3.234-1.21 5.855-2.703 5.855m2.703-5.855h2.702m-5.405 5.855h2.703c1.351 0 2.702-2.252 2.702-5.855m-3.26-3.603h2.703m-2.703 7.206h2.703" stroke="#010314" stroke-width="1.201" stroke-linecap="round" stroke-linejoin="round"/><rect x="387.538" y="135.906" width="32" height="32" rx="16" fill="#F5F5F9"/><path stroke="#F5F5F9" stroke-width=".809" d="M394.234 142.602h18.608v18.608h-18.608z"/><path d="M410.011 159.188v-1.618a3.236 3.236 0 0 0-3.236-3.237h-6.473a3.236 3.236 0 0 0-3.236 3.237v1.618m9.709-11.327a3.236 3.236 0 1 1-6.473 0 3.236 3.236 0 0 1 6.473 0Z" stroke="#1A1A1A" stroke-width="1.214" stroke-linecap="round" stroke-linejoin="round"/><path d="M155.314 91.602s-10.613 12.094-15.872-8.902a1.81 1.81 0 0 0-1.742-1.357h-7.914a1.26 1.26 0 0 0-1.257 1.142c-.227 2.468 0 8.472 6.347 13.402 8.208 6.377 15.866 2.045 20.438-4.285Z" fill="url(#d)"/><path d="M130.863 91.604s10.599 12.092 15.861-8.904a1.796 1.796 0 0 1 1.742-1.357h7.918a1.261 1.261 0 0 1 1.255 1.142c.226 2.468 0 8.472-6.348 13.402-8.212 6.377-15.949 2.113-20.428-4.283Z" fill="url(#e)"/><rect x="235.403" y="81.849" width="81.05" height="16.682" rx="8.341" fill="#F5F5F9"/><path d="m217.417 201.477-2.652 7.267-1.132 3.323h-1.395l1.023-2.98-2.798-7.61h1.49l1.98 5.653 1.986-5.653h1.498ZM206.585 201.352c.969 0 1.751.258 2.345.775.594.511.891 1.185.891 2.023v4.864h-1.454v-1.227c-.18.409-.491.735-.934.979-.444.243-.95.365-1.52.365-.769 0-1.387-.209-1.855-.628-.467-.419-.701-.967-.701-1.643 0-.726.265-1.298.796-1.717.531-.419 1.244-.628 2.14-.628h1.57c.166 0 .29-.039.373-.117a.44.44 0 0 0 .131-.336c0-.467-.16-.84-.482-1.117-.321-.283-.769-.424-1.344-.424-.511 0-.942.141-1.292.424-.351.277-.538.611-.563 1h-1.344c.059-.745.392-1.363 1.001-1.855.609-.492 1.356-.738 2.242-.738Zm-.387 6.632c.682 0 1.213-.204 1.592-.613.385-.409.577-.964.577-1.665v-.176h-1.942c-.497 0-.894.117-1.191.351-.292.234-.438.55-.438.949 0 .346.129.626.387.84.258.21.596.314 1.015.314ZM197.886 209.131c-1.13 0-2.016-.36-2.659-1.081-.638-.72-.956-1.655-.956-2.805 0-1.149.318-2.084.956-2.804.638-.726 1.52-1.089 2.644-1.089.512 0 .982.112 1.41.336.433.224.762.521.986.892v-4.259h1.446v10.693h-1.446v-1.125c-.224.375-.553.677-.986.906a2.992 2.992 0 0 1-1.395.336Zm.168-1.271c.701 0 1.261-.238 1.68-.716.424-.477.635-1.11.635-1.899 0-.788-.211-1.421-.635-1.899-.419-.477-.979-.715-1.68-.715-.691 0-1.249.241-1.673.723-.423.477-.635 1.107-.635 1.891s.212 1.417.635 1.899c.424.478.982.716 1.673.716ZM192.189 208.036c-.725.73-1.653 1.095-2.783 1.095-1.129 0-2.059-.365-2.79-1.095-.73-.731-1.095-1.661-1.095-2.791 0-1.129.365-2.059 1.095-2.79.731-.735 1.661-1.103 2.79-1.103 1.125 0 2.05.368 2.776 1.103.73.731 1.095 1.661 1.095 2.79 0 1.13-.362 2.06-1.088 2.791Zm-2.783-.176c.711 0 1.288-.241 1.731-.723.443-.487.665-1.117.665-1.892 0-.774-.222-1.402-.665-1.884-.443-.487-1.02-.73-1.731-.73-.716 0-1.297.243-1.745.73-.444.482-.665 1.11-.665 1.884 0 .775.221 1.405.665 1.892.448.482 1.029.723 1.745.723ZM181.226 199.11h1.446v2.367h2.235v1.256h-2.235v3.769c0 .404.102.716.307.935.204.214.491.321.862.321h1.066v1.256h-1.183c-.77 0-1.378-.219-1.826-.657-.448-.443-.672-1.047-.672-1.811v-3.813h-1.541v-1.256h1.541v-2.367ZM171.168 209.131c-1.129 0-2.016-.36-2.658-1.081-.638-.72-.957-1.655-.957-2.805 0-1.149.319-2.084.957-2.804.637-.726 1.519-1.089 2.644-1.089.511 0 .981.112 1.409.336.434.224.762.521.986.892v-4.259h1.446v10.693h-1.446v-1.125a2.44 2.44 0 0 1-.986.906 2.992 2.992 0 0 1-1.395.336Zm.168-1.271c.701 0 1.261-.238 1.68-.716.424-.477.636-1.11.636-1.899 0-.788-.212-1.421-.636-1.899-.419-.477-.979-.715-1.68-.715-.691 0-1.249.241-1.672.723-.424.477-.636 1.107-.636 1.891s.212 1.417.636 1.899c.423.478.981.716 1.672.716ZM165.113 206.56h1.454a2.857 2.857 0 0 1-1.154 1.87c-.628.467-1.405.701-2.33.701-.755 0-1.425-.182-2.009-.548a3.625 3.625 0 0 1-1.322-1.431 4.24 4.24 0 0 1-.453-1.95c0-.711.139-1.354.417-1.929a3.32 3.32 0 0 1 1.249-1.395c.56-.35 1.215-.526 1.964-.526.565 0 1.077.098 1.534.293.463.189.84.45 1.132.781.292.331.516.711.672 1.14.161.428.241.883.241 1.365 0 .205-.009.395-.029.57h-5.763c.059.716.302 1.293.731 1.731.433.438.978.657 1.636.657.555 0 1.005-.114 1.351-.343.346-.229.572-.557.679-.986Zm-2.184-4.039c-.594 0-1.076.163-1.446.489-.37.322-.611.797-.723 1.425h4.28c-.044-.585-.253-1.05-.628-1.395-.375-.346-.869-.519-1.483-.519ZM151.185 209.014v-7.537h1.453v1.329c.2-.468.509-.825.928-1.074.423-.253.92-.38 1.49-.38.847 0 1.526.28 2.037.84.517.555.775 1.283.775 2.184v4.638h-1.446v-4.353c0-.599-.164-1.081-.49-1.446-.321-.37-.747-.555-1.278-.555-.589 0-1.074.214-1.454.643-.374.428-.562.971-.562 1.628v4.083h-1.453ZM149.986 202.733h-1.095c-1.213 0-1.819.957-1.819 2.87v3.411h-1.453v-7.537h1.453v1.446c.171-.502.414-.867.731-1.096.321-.234.745-.35 1.27-.35h.913v1.256ZM140.703 201.352c.969 0 1.751.258 2.345.775.594.511.891 1.185.891 2.023v4.864h-1.453v-1.227c-.181.409-.492.735-.935.979-.443.243-.95.365-1.52.365-.769 0-1.387-.209-1.855-.628-.467-.419-.701-.967-.701-1.643 0-.726.265-1.298.796-1.717.531-.419 1.244-.628 2.14-.628h1.571c.165 0 .289-.039.372-.117a.44.44 0 0 0 .132-.336c0-.467-.161-.84-.482-1.117-.322-.283-.77-.424-1.344-.424-.512 0-.943.141-1.293.424-.351.277-.538.611-.563 1h-1.344c.059-.745.392-1.363 1.001-1.855.609-.492 1.356-.738 2.242-.738Zm-.387 6.632c.682 0 1.213-.204 1.593-.613.384-.409.577-.964.577-1.665v-.176h-1.943c-.497 0-.894.117-1.191.351-.292.234-.438.55-.438.949 0 .346.129.626.387.84.258.21.597.314 1.015.314ZM129.477 209.014V198.54h6.72v1.381h-5.164v3.002h4.178v1.38h-4.178v3.338h5.324v1.373h-6.88Z" fill="#5E6077"/></g><path d="M442 480.5h.5V106.858c0-24.498-19.86-44.358-44.358-44.358H153.858c-24.498 0-44.358 19.86-44.358 44.358V480.5H442Z" stroke="#ECECFB"/></g><defs><linearGradient id="d" x1="132.254" y1="87.133" x2="134.797" y2="99.857" gradientUnits="userSpaceOnUse"><stop stop-color="#C64C72" stop-opacity="0"/><stop offset=".51" stop-color="#A5488D" stop-opacity=".3"/><stop offset="1" stop-color="#8845A6"/></linearGradient><linearGradient id="e" x1="154.235" y1="79.386" x2="140.57" y2="98.398" gradientUnits="userSpaceOnUse"><stop offset=".3" stop-color="#7921A2"/><stop offset=".656" stop-color="#9F2480" stop-opacity=".798"/><stop offset="1" stop-color="#D7274E" stop-opacity=".5"/></linearGradient><clipPath id="a"><path fill="#fff" transform="translate(0 .96)" d="M0 0h552.5v412H0z"/></clipPath><clipPath id="c"><path d="M110 106.858C110 82.636 129.636 63 153.858 63h244.284C422.364 63 442 82.636 442 106.858V480H110V106.858Z" fill="#fff"/></clipPath></defs></svg>