<svg width="553" height="444" viewBox="0 0 553 444" fill="none" xmlns="http://www.w3.org/2000/svg">
<g clip-path="url(#clip0_4034_74373)">
<path d="M552.45 48.0001V47.5501H552H116C102.497 47.5501 91.55 58.4967 91.55 72.0001V446V446.45H92H552H552.45V446V48.0001Z" fill="#F5F5F9"/>
<path d="M552.45 48.0001V47.5501H552H116C102.497 47.5501 91.55 58.4967 91.55 72.0001V446V446.45H92H552H552.45V446V48.0001Z" stroke="#DFE1F4" stroke-width="0.9"/>
<path d="M133.878 136.8L132.273 132.523H125.148L123.531 136.8H120.964L127.573 119.995H129.87L136.468 136.8H133.878ZM125.98 130.343H131.452L128.722 123.124L125.98 130.343ZM138.109 136.8V124.706H140.441V126.839C140.761 126.089 141.257 125.515 141.929 125.117C142.609 124.71 143.406 124.507 144.32 124.507C145.679 124.507 146.769 124.956 147.589 125.855C148.417 126.745 148.831 127.913 148.831 129.359V136.8H146.511V129.816C146.511 128.855 146.249 128.081 145.726 127.495C145.21 126.902 144.527 126.605 143.675 126.605C142.73 126.605 141.952 126.949 141.343 127.636C140.741 128.324 140.441 129.195 140.441 130.249V136.8H138.109ZM156.402 124.507C157.956 124.507 159.21 124.921 160.163 125.749C161.116 126.57 161.593 127.652 161.593 128.995V136.8H159.261V134.831C158.972 135.488 158.472 136.011 157.761 136.402C157.05 136.792 156.238 136.988 155.323 136.988C154.089 136.988 153.097 136.652 152.347 135.98C151.597 135.308 151.222 134.429 151.222 133.343C151.222 132.179 151.648 131.261 152.499 130.589C153.351 129.917 154.495 129.581 155.933 129.581H158.452C158.718 129.581 158.917 129.519 159.05 129.394C159.191 129.261 159.261 129.081 159.261 128.855C159.261 128.105 159.003 127.507 158.488 127.062C157.972 126.609 157.253 126.382 156.331 126.382C155.511 126.382 154.82 126.609 154.257 127.062C153.695 127.507 153.394 128.042 153.355 128.667H151.198C151.292 127.472 151.827 126.48 152.804 125.691C153.781 124.902 154.98 124.507 156.402 124.507ZM155.781 135.148C156.874 135.148 157.726 134.82 158.335 134.163C158.952 133.507 159.261 132.617 159.261 131.492V131.21H156.144C155.347 131.21 154.71 131.398 154.234 131.773C153.765 132.148 153.531 132.656 153.531 133.296C153.531 133.851 153.738 134.3 154.152 134.644C154.566 134.98 155.109 135.148 155.781 135.148ZM164.406 136.8V119.644H166.738V136.8H164.406ZM179.757 124.706L175.503 136.367L173.687 141.699H171.448L173.089 136.917L168.601 124.706H170.991L174.167 133.777L177.355 124.706H179.757ZM182.909 120.909H185.23V124.706H188.816V126.722H185.23V132.769C185.23 133.417 185.394 133.917 185.722 134.269C186.05 134.613 186.511 134.784 187.105 134.784H188.816V136.8H186.917C185.683 136.8 184.706 136.449 183.988 135.745C183.269 135.034 182.909 134.066 182.909 132.839V126.722H180.437V124.706H182.909V120.909ZM190.656 119.644H193.245V122.574H190.656V119.644ZM190.796 136.8V124.706H193.128V136.8H190.796ZM201.378 136.988C200.448 136.988 199.601 136.82 198.835 136.484C198.07 136.148 197.437 135.695 196.937 135.124C196.437 134.546 196.05 133.882 195.777 133.132C195.511 132.382 195.378 131.589 195.378 130.753C195.378 129.909 195.511 129.113 195.777 128.363C196.05 127.613 196.437 126.952 196.937 126.382C197.437 125.804 198.07 125.347 198.835 125.011C199.601 124.675 200.448 124.507 201.378 124.507C202.831 124.507 204.089 124.909 205.152 125.714C206.214 126.519 206.827 127.589 206.991 128.925H204.659C204.558 128.245 204.198 127.683 203.581 127.238C202.964 126.784 202.245 126.558 201.425 126.558C200.261 126.558 199.363 126.952 198.73 127.742C198.105 128.523 197.792 129.527 197.792 130.753C197.792 131.972 198.109 132.976 198.741 133.765C199.374 134.554 200.269 134.949 201.425 134.949C202.245 134.949 202.945 134.749 203.523 134.351C204.101 133.952 204.488 133.409 204.683 132.722H206.991C206.796 134.003 206.191 135.034 205.175 135.816C204.167 136.597 202.902 136.988 201.378 136.988ZM213.32 136.988C211.898 136.988 210.745 136.62 209.863 135.886C208.988 135.144 208.511 134.136 208.433 132.863H210.613C210.683 133.558 210.956 134.097 211.433 134.48C211.909 134.855 212.538 135.042 213.32 135.042C213.999 135.042 214.55 134.886 214.972 134.574C215.394 134.261 215.605 133.874 215.605 133.413C215.605 133.031 215.507 132.718 215.312 132.476C215.116 132.226 214.855 132.046 214.527 131.937C214.206 131.827 213.839 131.73 213.425 131.644C213.019 131.558 212.601 131.488 212.171 131.433C211.741 131.378 211.32 131.277 210.906 131.128C210.499 130.972 210.132 130.784 209.804 130.566C209.484 130.339 209.226 130.007 209.031 129.57C208.835 129.132 208.738 128.605 208.738 127.988C208.738 126.949 209.136 126.109 209.933 125.468C210.738 124.827 211.773 124.507 213.038 124.507C214.406 124.507 215.519 124.855 216.378 125.55C217.238 126.245 217.698 127.163 217.761 128.304H215.581C215.503 127.663 215.206 127.179 214.691 126.851C214.183 126.523 213.632 126.359 213.038 126.359C212.413 126.359 211.909 126.503 211.527 126.792C211.144 127.074 210.952 127.449 210.952 127.917C210.952 128.316 211.077 128.632 211.327 128.867C211.585 129.101 211.917 129.265 212.323 129.359C212.73 129.445 213.179 129.519 213.671 129.581C214.163 129.636 214.656 129.73 215.148 129.863C215.64 129.988 216.089 130.167 216.495 130.402C216.902 130.628 217.23 130.992 217.48 131.492C217.738 131.992 217.866 132.617 217.866 133.367C217.866 134.468 217.448 135.347 216.613 136.003C215.784 136.659 214.687 136.988 213.32 136.988Z" fill="#010314"/>
<path d="M132.8 166.175H380.8C387.22 166.175 392.425 171.38 392.425 177.8V226.8C392.425 233.22 387.22 238.425 380.8 238.425H132.8C126.38 238.425 121.175 233.22 121.175 226.8V177.8C121.175 171.38 126.38 166.175 132.8 166.175Z" fill="white"/>
<path d="M132.8 166.175H380.8C387.22 166.175 392.425 171.38 392.425 177.8V226.8C392.425 233.22 387.22 238.425 380.8 238.425H132.8C126.38 238.425 121.175 233.22 121.175 226.8V177.8C121.175 171.38 126.38 166.175 132.8 166.175Z" stroke="#DFE1F4" stroke-width="0.75"/>
<path d="M137.661 190.8V182.073H140.934C141.604 182.073 142.167 182.189 142.621 182.422C143.078 182.655 143.424 182.982 143.657 183.402C143.892 183.82 144.01 184.307 144.01 184.864C144.01 185.424 143.891 185.909 143.652 186.321C143.417 186.73 143.069 187.047 142.608 187.272C142.148 187.493 141.583 187.604 140.912 187.604H138.581V186.292H140.699C141.091 186.292 141.412 186.238 141.662 186.13C141.912 186.019 142.097 185.858 142.216 185.648C142.338 185.435 142.399 185.174 142.399 184.864C142.399 184.554 142.338 184.29 142.216 184.071C142.094 183.85 141.908 183.682 141.658 183.569C141.408 183.452 141.086 183.394 140.691 183.394H139.242V190.8H137.661ZM142.169 186.846L144.33 190.8H142.566L140.444 186.846H142.169ZM145.946 190.8V182.073H151.622V183.398H147.526V185.767H151.328V187.093H147.526V189.475H151.656V190.8H145.946ZM154.882 182.073L157.154 188.942H157.243L159.51 182.073H161.249L158.172 190.8H156.22L153.148 182.073H154.882ZM162.878 190.8V182.073H168.554V183.398H164.459V185.767H168.26V187.093H164.459V189.475H168.588V190.8H162.878ZM177.819 182.073V190.8H176.413L172.301 184.855H172.228V190.8H170.647V182.073H172.062L176.17 188.022H176.247V182.073H177.819ZM185.523 182.073H187.104V187.775C187.104 188.4 186.956 188.949 186.661 189.424C186.368 189.898 185.956 190.269 185.425 190.536C184.894 190.8 184.273 190.932 183.563 190.932C182.85 190.932 182.228 190.8 181.696 190.536C181.165 190.269 180.753 189.898 180.461 189.424C180.168 188.949 180.022 188.4 180.022 187.775V182.073H181.603V187.642C181.603 188.006 181.682 188.33 181.841 188.614C182.003 188.898 182.231 189.121 182.523 189.283C182.816 189.442 183.162 189.522 183.563 189.522C183.964 189.522 184.31 189.442 184.603 189.283C184.898 189.121 185.125 188.898 185.285 188.614C185.444 188.33 185.523 188.006 185.523 187.642V182.073ZM189.303 190.8V182.073H194.979V183.398H190.884V185.767H194.685V187.093H190.884V189.475H195.013V190.8H189.303ZM206.375 184.86C206.304 184.63 206.206 184.424 206.081 184.242C205.959 184.057 205.811 183.9 205.638 183.769C205.467 183.638 205.271 183.54 205.049 183.475C204.828 183.407 204.586 183.373 204.325 183.373C203.856 183.373 203.439 183.49 203.072 183.726C202.706 183.962 202.417 184.309 202.207 184.766C202 185.221 201.896 185.775 201.896 186.428C201.896 187.087 202 187.645 202.207 188.103C202.415 188.56 202.703 188.908 203.072 189.147C203.442 189.382 203.871 189.5 204.359 189.5C204.802 189.5 205.186 189.415 205.51 189.245C205.836 189.074 206.088 188.833 206.264 188.52C206.44 188.205 206.528 187.836 206.528 187.412L206.886 187.468H204.517V186.232H208.058V187.28C208.058 188.027 207.899 188.674 207.581 189.219C207.263 189.765 206.825 190.185 206.268 190.48C205.711 190.773 205.072 190.919 204.351 190.919C203.547 190.919 202.841 190.739 202.233 190.378C201.628 190.015 201.155 189.499 200.814 188.831C200.476 188.161 200.307 187.365 200.307 186.445C200.307 185.74 200.406 185.111 200.605 184.557C200.807 184.003 201.088 183.533 201.449 183.147C201.809 182.757 202.233 182.462 202.719 182.26C203.204 182.056 203.733 181.953 204.304 181.953C204.787 181.953 205.237 182.025 205.655 182.167C206.072 182.306 206.443 182.505 206.767 182.763C207.094 183.022 207.362 183.328 207.572 183.684C207.782 184.039 207.92 184.431 207.986 184.86H206.375ZM210.067 190.8V182.073H215.743V183.398H211.648V185.767H215.449V187.093H211.648V189.475H215.777V190.8H210.067ZM225.008 182.073V190.8H223.601L219.489 184.855H219.417V190.8H217.836V182.073H219.251L223.359 188.022H223.435V182.073H225.008ZM227.21 190.8V182.073H232.887V183.398H228.791V185.767H232.592V187.093H228.791V189.475H232.921V190.8H227.21ZM234.979 190.8V182.073H238.252C238.923 182.073 239.485 182.189 239.94 182.422C240.397 182.655 240.742 182.982 240.975 183.402C241.211 183.82 241.329 184.307 241.329 184.864C241.329 185.424 241.21 185.909 240.971 186.321C240.735 186.73 240.387 187.047 239.927 187.272C239.467 187.493 238.901 187.604 238.231 187.604H235.9V186.292H238.018C238.41 186.292 238.731 186.238 238.981 186.13C239.231 186.019 239.416 185.858 239.535 185.648C239.657 185.435 239.718 185.174 239.718 184.864C239.718 184.554 239.657 184.29 239.535 184.071C239.413 183.85 239.227 183.682 238.977 183.569C238.727 183.452 238.404 183.394 238.009 183.394H236.56V190.8H234.979ZM239.488 186.846L241.648 190.8H239.884L237.762 186.846H239.488ZM244.385 190.8H242.697L245.77 182.073H247.722L250.798 190.8H249.111L246.78 183.863H246.712L244.385 190.8ZM244.44 187.378H249.043V188.648H244.44V187.378ZM250.99 183.398V182.073H257.953V183.398H255.255V190.8H253.687V183.398H250.99ZM259.775 190.8V182.073H265.451V183.398H261.356V185.767H265.157V187.093H261.356V189.475H265.485V190.8H259.775ZM270.501 190.8H267.544V182.073H270.561C271.427 182.073 272.172 182.248 272.794 182.597C273.419 182.944 273.899 183.442 274.234 184.093C274.57 184.743 274.737 185.522 274.737 186.428C274.737 187.337 274.568 188.118 274.23 188.772C273.895 189.425 273.41 189.927 272.777 190.276C272.146 190.625 271.388 190.8 270.501 190.8ZM269.125 189.432H270.425C271.033 189.432 271.54 189.321 271.946 189.1C272.352 188.875 272.658 188.542 272.862 188.098C273.067 187.652 273.169 187.096 273.169 186.428C273.169 185.76 273.067 185.206 272.862 184.766C272.658 184.323 272.355 183.992 271.954 183.773C271.557 183.552 271.062 183.441 270.472 183.441H269.125V189.432Z" fill="#5E6077"/>
<path d="M150.171 216.124C150.171 217.484 149.695 218.585 148.741 219.429C147.796 220.273 146.534 220.777 144.956 220.941V223.062L142.87 223.027V220.917C141.3 220.714 140.046 220.109 139.109 219.101C138.171 218.085 137.659 216.796 137.573 215.234H139.988C140.081 216.327 140.476 217.195 141.171 217.835C141.866 218.468 142.8 218.784 143.972 218.784C145.081 218.784 145.968 218.566 146.632 218.128C147.296 217.683 147.628 217.023 147.628 216.148C147.628 215.718 147.519 215.343 147.3 215.023C147.081 214.702 146.788 214.445 146.421 214.249C146.054 214.046 145.632 213.866 145.156 213.71C144.679 213.554 144.175 213.406 143.644 213.265C143.12 213.124 142.597 212.976 142.073 212.82C141.55 212.663 141.05 212.464 140.573 212.222C140.097 211.972 139.675 211.687 139.308 211.366C138.941 211.038 138.648 210.616 138.429 210.101C138.21 209.585 138.101 208.999 138.101 208.343C138.101 207.14 138.534 206.132 139.402 205.32C140.277 204.499 141.433 204.011 142.87 203.855V201.839H144.956V203.878C146.363 204.074 147.503 204.616 148.378 205.507C149.253 206.398 149.738 207.519 149.831 208.87H147.406C147.32 208.003 146.956 207.312 146.316 206.796C145.683 206.273 144.855 206.011 143.831 206.011C142.831 206.011 142.042 206.222 141.464 206.644C140.886 207.066 140.597 207.632 140.597 208.343C140.597 208.773 140.706 209.148 140.925 209.468C141.144 209.788 141.437 210.046 141.804 210.241C142.171 210.429 142.593 210.597 143.07 210.745C143.554 210.894 144.058 211.034 144.581 211.167C145.113 211.292 145.644 211.429 146.175 211.577C146.706 211.726 147.21 211.921 147.687 212.163C148.171 212.406 148.597 212.691 148.964 213.019C149.331 213.347 149.624 213.777 149.843 214.308C150.062 214.831 150.171 215.437 150.171 216.124ZM158.181 203.995V220.8H155.685V207.886C155.56 208.074 155.329 208.222 154.993 208.331C154.665 208.433 154.325 208.484 153.974 208.484H152.485V206.281H153.786C154.403 206.281 154.868 206.116 155.181 205.788C155.501 205.46 155.7 204.863 155.778 203.995H158.181ZM167.28 220.988C165.257 220.988 163.768 220.32 162.815 218.984C161.87 217.648 161.397 215.667 161.397 213.042V211.753C161.397 209.128 161.87 207.148 162.815 205.812C163.768 204.476 165.257 203.808 167.28 203.808H168.147C170.178 203.808 171.663 204.48 172.6 205.824C173.546 207.159 174.018 209.136 174.018 211.753V213.042C174.018 215.659 173.546 217.64 172.6 218.984C171.663 220.32 170.178 220.988 168.147 220.988H167.28ZM167.374 218.784H168.077C170.374 218.784 171.522 217.031 171.522 213.523V211.273C171.522 207.765 170.374 206.011 168.077 206.011H167.374C165.069 206.011 163.917 207.765 163.917 211.273V213.523C163.917 217.031 165.069 218.784 167.374 218.784ZM182.719 215.234C180.993 215.234 179.575 214.695 178.465 213.616C177.364 212.531 176.813 211.163 176.813 209.515C176.813 207.874 177.391 206.515 178.547 205.437C179.711 204.351 181.165 203.808 182.907 203.808C184.868 203.808 186.418 204.531 187.559 205.976C188.7 207.413 189.27 209.3 189.27 211.636C189.27 213.136 189.102 214.484 188.766 215.679C188.438 216.874 187.977 217.859 187.383 218.632C186.79 219.406 186.086 219.995 185.274 220.402C184.469 220.808 183.583 221.011 182.614 221.011C181.02 221.011 179.684 220.581 178.606 219.722C177.528 218.863 176.883 217.757 176.672 216.406H179.086C179.258 217.163 179.649 217.761 180.258 218.199C180.876 218.636 181.645 218.855 182.567 218.855C183.801 218.855 184.817 218.288 185.614 217.156C186.411 216.015 186.844 214.574 186.915 212.831C186.571 213.534 186.001 214.113 185.204 214.566C184.415 215.011 183.586 215.234 182.719 215.234ZM182.883 206.011C181.852 206.011 181.004 206.343 180.34 207.007C179.684 207.663 179.356 208.507 179.356 209.538C179.356 210.554 179.684 211.39 180.34 212.046C181.004 212.695 181.852 213.019 182.883 213.019C183.922 213.019 184.774 212.695 185.438 212.046C186.102 211.398 186.434 210.562 186.434 209.538C186.434 208.507 186.102 207.663 185.438 207.007C184.774 206.343 183.922 206.011 182.883 206.011ZM190.635 221.902H191.502C191.838 221.902 192.096 221.765 192.276 221.491C192.463 221.226 192.557 220.843 192.557 220.343V218.07H194.877V220.484C194.877 221.546 194.6 222.366 194.045 222.945C193.498 223.531 192.729 223.824 191.737 223.824H190.635V221.902ZM204.223 220.988C203.082 220.988 202.051 220.769 201.129 220.331C200.215 219.886 199.484 219.245 198.938 218.409C198.398 217.566 198.129 216.601 198.129 215.515H200.578C200.578 216.507 200.922 217.3 201.609 217.894C202.297 218.488 203.168 218.784 204.223 218.784C205.309 218.784 206.168 218.534 206.801 218.034C207.434 217.527 207.75 216.831 207.75 215.949C207.75 215.058 207.434 214.378 206.801 213.909C206.176 213.433 205.316 213.195 204.223 213.195H202.805V211.062H204.199C205.09 211.062 205.797 210.82 206.32 210.335C206.844 209.843 207.106 209.21 207.106 208.437C207.106 207.687 206.832 207.097 206.285 206.667C205.738 206.23 205.004 206.011 204.082 206.011C203.176 206.011 202.449 206.257 201.902 206.749C201.363 207.241 201.07 207.949 201.023 208.87H198.633C198.68 207.339 199.219 206.113 200.25 205.191C201.289 204.269 202.574 203.808 204.106 203.808C205.684 203.808 206.992 204.234 208.031 205.085C209.078 205.937 209.602 206.999 209.602 208.273C209.602 209.077 209.383 209.816 208.945 210.488C208.516 211.152 207.965 211.644 207.293 211.964C208.184 212.261 208.902 212.765 209.449 213.476C209.996 214.179 210.27 215.011 210.27 215.972C210.27 217.011 209.984 217.917 209.414 218.691C208.852 219.464 208.117 220.042 207.211 220.425C206.313 220.8 205.316 220.988 204.223 220.988ZM217.834 203.995V220.8H215.338V207.886C215.213 208.074 214.982 208.222 214.646 208.331C214.318 208.433 213.978 208.484 213.627 208.484H212.138V206.281H213.439C214.056 206.281 214.521 206.116 214.834 205.788C215.154 205.46 215.353 204.863 215.431 203.995H217.834ZM226.675 203.995V220.8H224.179V207.886C224.054 208.074 223.824 208.222 223.488 208.331C223.16 208.433 222.82 208.484 222.468 208.484H220.98V206.281H222.281C222.898 206.281 223.363 206.116 223.675 205.788C223.996 205.46 224.195 204.863 224.273 203.995H226.675Z" fill="#3D3D3D"/>
<path d="M416.8 166.175H664.8C671.22 166.175 676.425 171.38 676.425 177.8V226.8C676.425 233.22 671.22 238.425 664.8 238.425H416.8C410.38 238.425 405.175 233.22 405.175 226.8V177.8C405.175 171.38 410.38 166.175 416.8 166.175Z" fill="white"/>
<path d="M416.8 166.175H664.8C671.22 166.175 676.425 171.38 676.425 177.8V226.8C676.425 233.22 671.22 238.425 664.8 238.425H416.8C410.38 238.425 405.175 233.22 405.175 226.8V177.8C405.175 171.38 410.38 166.175 416.8 166.175Z" stroke="#DFE1F4" stroke-width="0.75"/>
<path d="M421.661 190.8V182.073H427.337V183.398H423.242V185.767H427.043V187.093H423.242V189.475H427.371V190.8H421.661ZM430.551 190.8H428.863L431.936 182.073H433.887L436.964 190.8H435.276L432.946 183.863H432.877L430.551 190.8ZM430.606 187.378H435.208V188.648H430.606V187.378ZM438.593 190.8V182.073H441.866C442.537 182.073 443.099 182.189 443.554 182.422C444.011 182.655 444.356 182.982 444.589 183.402C444.825 183.82 444.943 184.307 444.943 184.864C444.943 185.424 444.824 185.909 444.585 186.321C444.349 186.73 444.001 187.047 443.541 187.272C443.081 187.493 442.515 187.604 441.845 187.604H439.514V186.292H441.632C442.024 186.292 442.345 186.238 442.595 186.13C442.845 186.019 443.03 185.858 443.149 185.648C443.271 185.435 443.332 185.174 443.332 184.864C443.332 184.554 443.271 184.29 443.149 184.071C443.027 183.85 442.841 183.682 442.591 183.569C442.341 183.452 442.018 183.394 441.623 183.394H440.174V190.8H438.593ZM443.102 186.846L445.263 190.8H443.498L441.376 186.846H443.102ZM454.05 182.073V190.8H452.644L448.532 184.855H448.459V190.8H446.878V182.073H448.293L452.401 188.022H452.478V182.073H454.05ZM456.253 190.8V182.073H461.929V183.398H457.834V185.767H461.635V187.093H457.834V189.475H461.963V190.8H456.253ZM466.979 190.8H464.022V182.073H467.039C467.905 182.073 468.65 182.248 469.272 182.597C469.897 182.944 470.377 183.442 470.712 184.093C471.047 184.743 471.215 185.522 471.215 186.428C471.215 187.337 471.046 188.118 470.708 188.772C470.373 189.425 469.888 189.927 469.255 190.276C468.624 190.625 467.866 190.8 466.979 190.8ZM465.603 189.432H466.902C467.51 189.432 468.018 189.321 468.424 189.1C468.83 188.875 469.135 188.542 469.34 188.098C469.545 187.652 469.647 187.096 469.647 186.428C469.647 185.76 469.545 185.206 469.34 184.766C469.135 184.323 468.833 183.992 468.432 183.773C468.035 183.552 467.54 183.441 466.949 183.441H465.603V189.432Z" fill="#5E6077"/>
<path d="M434.171 216.124C434.171 217.484 433.695 218.585 432.741 219.429C431.796 220.273 430.534 220.777 428.956 220.941V223.062L426.87 223.027V220.917C425.3 220.714 424.046 220.109 423.109 219.101C422.171 218.085 421.659 216.796 421.573 215.234H423.988C424.081 216.327 424.476 217.195 425.171 217.835C425.866 218.468 426.8 218.784 427.972 218.784C429.081 218.784 429.968 218.566 430.632 218.128C431.296 217.683 431.628 217.023 431.628 216.148C431.628 215.718 431.519 215.343 431.3 215.023C431.081 214.702 430.788 214.445 430.421 214.249C430.054 214.046 429.632 213.866 429.156 213.71C428.679 213.554 428.175 213.406 427.644 213.265C427.12 213.124 426.597 212.976 426.073 212.82C425.55 212.663 425.05 212.464 424.573 212.222C424.097 211.972 423.675 211.687 423.308 211.366C422.941 211.038 422.648 210.616 422.429 210.101C422.21 209.585 422.101 208.999 422.101 208.343C422.101 207.14 422.534 206.132 423.402 205.32C424.277 204.499 425.433 204.011 426.87 203.855V201.839H428.956V203.878C430.363 204.074 431.503 204.616 432.378 205.507C433.253 206.398 433.738 207.519 433.831 208.87H431.406C431.32 208.003 430.956 207.312 430.316 206.796C429.683 206.273 428.855 206.011 427.831 206.011C426.831 206.011 426.042 206.222 425.464 206.644C424.886 207.066 424.597 207.632 424.597 208.343C424.597 208.773 424.706 209.148 424.925 209.468C425.144 209.788 425.437 210.046 425.804 210.241C426.171 210.429 426.593 210.597 427.07 210.745C427.554 210.894 428.058 211.034 428.581 211.167C429.113 211.292 429.644 211.429 430.175 211.577C430.706 211.726 431.21 211.921 431.687 212.163C432.171 212.406 432.597 212.691 432.964 213.019C433.331 213.347 433.624 213.777 433.843 214.308C434.062 214.831 434.171 215.437 434.171 216.124ZM442.181 203.995V220.8H439.685V207.886C439.56 208.074 439.329 208.222 438.993 208.331C438.665 208.433 438.325 208.484 437.974 208.484H436.485V206.281H437.786C438.403 206.281 438.868 206.116 439.181 205.788C439.501 205.46 439.7 204.863 439.778 203.995H442.181ZM448.163 220.8C448.178 219.277 448.358 217.866 448.702 216.57C449.046 215.273 449.714 213.827 450.706 212.234L454.456 206.21H445.046V203.995H457.233V205.988L452.721 213.359C451.909 214.702 451.366 215.933 451.093 217.05C450.819 218.167 450.675 219.417 450.659 220.8H448.163ZM455.434 221.902H456.301C456.637 221.902 456.895 221.765 457.075 221.491C457.262 221.226 457.356 220.843 457.356 220.343V218.07H459.676V220.484C459.676 221.546 459.399 222.366 458.844 222.945C458.297 223.531 457.528 223.824 456.536 223.824H455.434V221.902ZM469.022 220.988C467.881 220.988 466.85 220.769 465.928 220.331C465.014 219.886 464.283 219.245 463.737 218.409C463.198 217.566 462.928 216.601 462.928 215.515H465.377C465.377 216.507 465.721 217.3 466.408 217.894C467.096 218.488 467.967 218.784 469.022 218.784C470.108 218.784 470.967 218.534 471.6 218.034C472.233 217.527 472.549 216.831 472.549 215.949C472.549 215.058 472.233 214.378 471.6 213.909C470.975 213.433 470.116 213.195 469.022 213.195H467.604V211.062H468.998C469.889 211.062 470.596 210.82 471.119 210.335C471.643 209.843 471.905 209.21 471.905 208.437C471.905 207.687 471.631 207.097 471.084 206.667C470.537 206.23 469.803 206.011 468.881 206.011C467.975 206.011 467.248 206.257 466.701 206.749C466.162 207.241 465.869 207.949 465.823 208.87H463.432C463.479 207.339 464.018 206.113 465.049 205.191C466.088 204.269 467.373 203.808 468.905 203.808C470.483 203.808 471.791 204.234 472.83 205.085C473.877 205.937 474.401 206.999 474.401 208.273C474.401 209.077 474.182 209.816 473.744 210.488C473.315 211.152 472.764 211.644 472.092 211.964C472.983 212.261 473.701 212.765 474.248 213.476C474.795 214.179 475.069 215.011 475.069 215.972C475.069 217.011 474.783 217.917 474.213 218.691C473.651 219.464 472.916 220.042 472.01 220.425C471.112 220.8 470.116 220.988 469.022 220.988ZM482.633 203.995V220.8H480.137V207.886C480.012 208.074 479.781 208.222 479.445 208.331C479.117 208.433 478.777 208.484 478.426 208.484H476.938V206.281H478.238C478.856 206.281 479.32 206.116 479.633 205.788C479.953 205.46 480.152 204.863 480.231 203.995H482.633ZM491.931 215.234C490.205 215.234 488.787 214.695 487.678 213.616C486.576 212.531 486.025 211.163 486.025 209.515C486.025 207.874 486.603 206.515 487.76 205.437C488.924 204.351 490.377 203.808 492.119 203.808C494.08 203.808 495.631 204.531 496.771 205.976C497.912 207.413 498.482 209.3 498.482 211.636C498.482 213.136 498.314 214.484 497.978 215.679C497.65 216.874 497.189 217.859 496.596 218.632C496.002 219.406 495.299 219.995 494.486 220.402C493.681 220.808 492.795 221.011 491.826 221.011C490.232 221.011 488.896 220.581 487.818 219.722C486.74 218.863 486.096 217.757 485.885 216.406H488.299C488.471 217.163 488.861 217.761 489.471 218.199C490.088 218.636 490.857 218.855 491.779 218.855C493.013 218.855 494.029 218.288 494.826 217.156C495.623 216.015 496.056 214.574 496.127 212.831C495.783 213.534 495.213 214.113 494.416 214.566C493.627 215.011 492.799 215.234 491.931 215.234ZM492.096 206.011C491.064 206.011 490.217 206.343 489.553 207.007C488.896 207.663 488.568 208.507 488.568 209.538C488.568 210.554 488.896 211.39 489.553 212.046C490.217 212.695 491.064 213.019 492.096 213.019C493.135 213.019 493.986 212.695 494.65 212.046C495.314 211.398 495.646 210.562 495.646 209.538C495.646 208.507 495.314 207.663 494.65 207.007C493.986 206.343 493.135 206.011 492.096 206.011Z" fill="#3D3D3D"/>
<g clip-path="url(#clip1_4034_74373)">
<path d="M121 263C121 256.373 126.373 251 133 251H553V446H121V263Z" fill="white"/>
<path d="M141.661 281.8V273.073H144.934C145.604 273.073 146.167 273.189 146.621 273.422C147.078 273.655 147.424 273.982 147.657 274.402C147.892 274.82 148.01 275.307 148.01 275.864C148.01 276.424 147.891 276.909 147.652 277.321C147.417 277.73 147.069 278.047 146.608 278.272C146.148 278.493 145.583 278.604 144.912 278.604H142.581V277.292H144.699C145.091 277.292 145.412 277.238 145.662 277.13C145.912 277.019 146.097 276.858 146.216 276.648C146.338 276.435 146.399 276.174 146.399 275.864C146.399 275.554 146.338 275.29 146.216 275.071C146.094 274.85 145.908 274.682 145.658 274.569C145.408 274.452 145.086 274.394 144.691 274.394H143.242V281.8H141.661ZM146.169 277.846L148.33 281.8H146.566L144.444 277.846H146.169ZM149.946 281.8V273.073H155.622V274.398H151.526V276.767H155.328V278.093H151.526V280.475H155.656V281.8H149.946ZM158.882 273.073L161.154 279.942H161.243L163.51 273.073H165.249L162.172 281.8H160.22L157.148 273.073H158.882ZM166.878 281.8V273.073H172.554V274.398H168.459V276.767H172.26V278.093H168.459V280.475H172.588V281.8H166.878ZM181.819 273.073V281.8H180.413L176.301 275.855H176.228V281.8H174.647V273.073H176.062L180.17 279.022H180.247V273.073H181.819ZM189.523 273.073H191.104V278.775C191.104 279.4 190.956 279.949 190.661 280.424C190.368 280.898 189.956 281.269 189.425 281.536C188.894 281.8 188.273 281.932 187.563 281.932C186.85 281.932 186.228 281.8 185.696 281.536C185.165 281.269 184.753 280.898 184.461 280.424C184.168 279.949 184.022 279.4 184.022 278.775V273.073H185.603V278.642C185.603 279.006 185.682 279.33 185.841 279.614C186.003 279.898 186.231 280.121 186.523 280.283C186.816 280.442 187.162 280.522 187.563 280.522C187.964 280.522 188.31 280.442 188.603 280.283C188.898 280.121 189.125 279.898 189.285 279.614C189.444 279.33 189.523 279.006 189.523 278.642V273.073ZM193.303 281.8V273.073H198.979V274.398H194.884V276.767H198.685V278.093H194.884V280.475H199.013V281.8H193.303ZM210.375 275.86C210.304 275.63 210.206 275.424 210.081 275.242C209.959 275.057 209.811 274.9 209.638 274.769C209.467 274.638 209.271 274.54 209.049 274.475C208.828 274.407 208.586 274.373 208.325 274.373C207.856 274.373 207.439 274.49 207.072 274.726C206.706 274.962 206.417 275.309 206.207 275.766C206 276.221 205.896 276.775 205.896 277.428C205.896 278.087 206 278.645 206.207 279.103C206.415 279.56 206.703 279.908 207.072 280.147C207.442 280.382 207.871 280.5 208.359 280.5C208.802 280.5 209.186 280.415 209.51 280.245C209.836 280.074 210.088 279.833 210.264 279.52C210.44 279.205 210.528 278.836 210.528 278.412L210.886 278.468H208.517V277.232H212.058V278.28C212.058 279.027 211.899 279.674 211.581 280.219C211.263 280.765 210.825 281.185 210.268 281.48C209.711 281.773 209.072 281.919 208.351 281.919C207.547 281.919 206.841 281.739 206.233 281.378C205.628 281.015 205.155 280.499 204.814 279.831C204.476 279.161 204.307 278.365 204.307 277.445C204.307 276.74 204.406 276.111 204.605 275.557C204.807 275.003 205.088 274.533 205.449 274.147C205.809 273.757 206.233 273.462 206.719 273.26C207.204 273.056 207.733 272.953 208.304 272.953C208.787 272.953 209.237 273.025 209.655 273.167C210.072 273.306 210.443 273.505 210.767 273.763C211.094 274.022 211.362 274.328 211.572 274.684C211.782 275.039 211.92 275.431 211.986 275.86H210.375ZM214.067 281.8V273.073H219.743V274.398H215.648V276.767H219.449V278.093H215.648V280.475H219.777V281.8H214.067ZM229.008 273.073V281.8H227.601L223.489 275.855H223.417V281.8H221.836V273.073H223.251L227.359 279.022H227.435V273.073H229.008ZM231.21 281.8V273.073H236.887V274.398H232.791V276.767H236.592V278.093H232.791V280.475H236.921V281.8H231.21ZM238.979 281.8V273.073H242.252C242.923 273.073 243.485 273.189 243.94 273.422C244.397 273.655 244.742 273.982 244.975 274.402C245.211 274.82 245.329 275.307 245.329 275.864C245.329 276.424 245.21 276.909 244.971 277.321C244.735 277.73 244.387 278.047 243.927 278.272C243.467 278.493 242.901 278.604 242.231 278.604H239.9V277.292H242.018C242.41 277.292 242.731 277.238 242.981 277.13C243.231 277.019 243.416 276.858 243.535 276.648C243.657 276.435 243.718 276.174 243.718 275.864C243.718 275.554 243.657 275.29 243.535 275.071C243.413 274.85 243.227 274.682 242.977 274.569C242.727 274.452 242.404 274.394 242.009 274.394H240.56V281.8H238.979ZM243.488 277.846L245.648 281.8H243.884L241.762 277.846H243.488ZM248.385 281.8H246.697L249.77 273.073H251.722L254.798 281.8H253.111L250.78 274.863H250.712L248.385 281.8ZM248.44 278.378H253.043V279.648H248.44V278.378ZM254.99 274.398V273.073H261.953V274.398H259.255V281.8H257.687V274.398H254.99ZM263.775 281.8V273.073H269.451V274.398H265.356V276.767H269.157V278.093H265.356V280.475H269.485V281.8H263.775ZM274.501 281.8H271.544V273.073H274.561C275.427 273.073 276.172 273.248 276.794 273.597C277.419 273.944 277.899 274.442 278.234 275.093C278.57 275.743 278.737 276.522 278.737 277.428C278.737 278.337 278.568 279.118 278.23 279.772C277.895 280.425 277.41 280.927 276.777 281.276C276.146 281.625 275.388 281.8 274.501 281.8ZM273.125 280.432H274.425C275.033 280.432 275.54 280.321 275.946 280.1C276.352 279.875 276.658 279.542 276.862 279.098C277.067 278.652 277.169 278.096 277.169 277.428C277.169 276.76 277.067 276.206 276.862 275.766C276.658 275.323 276.355 274.992 275.954 274.773C275.557 274.552 275.062 274.441 274.472 274.441H273.125V280.432Z" fill="#5E6077"/>
<path opacity="0.5" d="M143.744 314.709V305.618H144.326V314.709H143.744ZM145.566 308.438C145.528 308.102 145.372 307.841 145.097 307.657C144.822 307.47 144.477 307.376 144.06 307.376C143.762 307.376 143.504 307.423 143.286 307.518C143.068 307.61 142.899 307.738 142.778 307.902C142.66 308.063 142.6 308.246 142.6 308.452C142.6 308.625 142.641 308.774 142.721 308.9C142.804 309.025 142.912 309.13 143.044 309.216C143.179 309.298 143.324 309.368 143.478 309.425C143.631 309.48 143.779 309.525 143.921 309.56L144.632 309.745C144.864 309.801 145.102 309.878 145.346 309.976C145.589 310.073 145.815 310.2 146.024 310.359C146.232 310.518 146.4 310.714 146.528 310.949C146.658 311.183 146.723 311.463 146.723 311.79C146.723 312.202 146.617 312.568 146.404 312.887C146.193 313.207 145.886 313.459 145.484 313.644C145.084 313.828 144.6 313.921 144.032 313.921C143.487 313.921 143.016 313.834 142.618 313.662C142.221 313.489 141.909 313.244 141.684 312.926C141.459 312.607 141.335 312.228 141.311 311.79H142.412C142.434 312.053 142.519 312.272 142.668 312.447C142.819 312.62 143.012 312.749 143.247 312.834C143.484 312.917 143.743 312.958 144.024 312.958C144.335 312.958 144.61 312.91 144.852 312.813C145.096 312.713 145.288 312.576 145.427 312.401C145.567 312.223 145.637 312.016 145.637 311.779C145.637 311.564 145.575 311.388 145.452 311.25C145.331 311.113 145.167 310.999 144.958 310.909C144.752 310.819 144.519 310.74 144.259 310.672L143.399 310.437C142.817 310.279 142.355 310.045 142.015 309.738C141.676 309.43 141.507 309.023 141.507 308.516C141.507 308.097 141.62 307.731 141.848 307.419C142.075 307.106 142.383 306.864 142.771 306.691C143.159 306.516 143.597 306.428 144.085 306.428C144.577 306.428 145.012 306.514 145.388 306.687C145.767 306.86 146.065 307.098 146.283 307.401C146.501 307.702 146.614 308.047 146.624 308.438H145.566ZM151.094 306.527V313.8H149.994V307.628H149.951L148.211 308.765V307.713L150.026 306.527H151.094ZM155.994 313.921C155.433 313.918 154.953 313.77 154.555 313.477C154.158 313.183 153.854 312.756 153.643 312.195C153.432 311.634 153.327 310.958 153.327 310.167C153.327 309.379 153.432 308.705 153.643 308.147C153.856 307.588 154.161 307.162 154.559 306.868C154.959 306.575 155.437 306.428 155.994 306.428C156.55 306.428 157.027 306.576 157.425 306.872C157.823 307.165 158.127 307.592 158.337 308.15C158.551 308.707 158.657 309.379 158.657 310.167C158.657 310.96 158.552 311.637 158.341 312.199C158.13 312.757 157.826 313.185 157.428 313.48C157.031 313.774 156.552 313.921 155.994 313.921ZM155.994 312.973C156.486 312.973 156.871 312.732 157.148 312.252C157.427 311.771 157.567 311.076 157.567 310.167C157.567 309.564 157.503 309.053 157.375 308.637C157.25 308.218 157.069 307.9 156.832 307.685C156.597 307.467 156.318 307.358 155.994 307.358C155.504 307.358 155.119 307.6 154.84 308.083C154.56 308.566 154.419 309.261 154.417 310.167C154.417 310.773 154.48 311.286 154.605 311.705C154.733 312.122 154.914 312.438 155.149 312.653C155.383 312.866 155.665 312.973 155.994 312.973ZM162.849 313.921C162.288 313.918 161.808 313.77 161.411 313.477C161.013 313.183 160.709 312.756 160.498 312.195C160.287 311.634 160.182 310.958 160.182 310.167C160.182 309.379 160.287 308.705 160.498 308.147C160.711 307.588 161.016 307.162 161.414 306.868C161.814 306.575 162.292 306.428 162.849 306.428C163.405 306.428 163.882 306.576 164.28 306.872C164.678 307.165 164.982 307.592 165.193 308.15C165.406 308.707 165.512 309.379 165.512 310.167C165.512 310.96 165.407 311.637 165.196 312.199C164.985 312.757 164.681 313.185 164.283 313.48C163.886 313.774 163.407 313.921 162.849 313.921ZM162.849 312.973C163.341 312.973 163.726 312.732 164.003 312.252C164.282 311.771 164.422 311.076 164.422 310.167C164.422 309.564 164.358 309.053 164.23 308.637C164.105 308.218 163.924 307.9 163.687 307.685C163.452 307.467 163.173 307.358 162.849 307.358C162.359 307.358 161.974 307.6 161.695 308.083C161.415 308.566 161.274 309.261 161.272 310.167C161.272 310.773 161.335 311.286 161.46 311.705C161.588 312.122 161.769 312.438 162.004 312.653C162.238 312.866 162.52 312.973 162.849 312.973ZM167.271 313.8V306.527H168.369V310H168.457L171.508 306.527H172.889L169.956 309.801L172.9 313.8H171.579L169.228 310.551L168.369 311.538V313.8H167.271Z" fill="#5E6077"/>
<path opacity="0.5" d="M148.744 371.334V362.243H149.326V371.334H148.744ZM150.566 365.063C150.528 364.727 150.372 364.466 150.097 364.282C149.822 364.095 149.477 364.001 149.06 364.001C148.762 364.001 148.504 364.048 148.286 364.143C148.068 364.235 147.899 364.363 147.778 364.527C147.66 364.688 147.6 364.871 147.6 365.077C147.6 365.25 147.641 365.399 147.721 365.525C147.804 365.65 147.912 365.755 148.044 365.841C148.179 365.923 148.324 365.993 148.478 366.05C148.631 366.105 148.779 366.15 148.921 366.185L149.632 366.37C149.864 366.426 150.102 366.503 150.346 366.601C150.589 366.698 150.815 366.825 151.024 366.984C151.232 367.143 151.4 367.339 151.528 367.574C151.658 367.808 151.723 368.088 151.723 368.415C151.723 368.827 151.617 369.193 151.404 369.512C151.193 369.832 150.886 370.084 150.484 370.269C150.084 370.453 149.6 370.546 149.032 370.546C148.487 370.546 148.016 370.459 147.618 370.287C147.221 370.114 146.909 369.869 146.684 369.551C146.459 369.232 146.335 368.853 146.311 368.415H147.412C147.434 368.678 147.519 368.897 147.668 369.072C147.819 369.245 148.012 369.374 148.247 369.459C148.484 369.542 148.743 369.583 149.024 369.583C149.335 369.583 149.61 369.535 149.852 369.438C150.096 369.338 150.288 369.201 150.427 369.026C150.567 368.848 150.637 368.641 150.637 368.404C150.637 368.189 150.575 368.013 150.452 367.875C150.331 367.738 150.167 367.624 149.958 367.534C149.752 367.444 149.519 367.365 149.259 367.297L148.399 367.062C147.817 366.904 147.355 366.67 147.015 366.363C146.676 366.055 146.507 365.648 146.507 365.141C146.507 364.722 146.62 364.356 146.848 364.044C147.075 363.731 147.383 363.489 147.771 363.316C148.159 363.141 148.597 363.053 149.085 363.053C149.577 363.053 150.012 363.139 150.388 363.312C150.767 363.485 151.065 363.723 151.283 364.026C151.501 364.327 151.614 364.672 151.624 365.063H150.566ZM155.793 370.525C155.284 370.525 154.834 370.437 154.443 370.262C154.055 370.087 153.751 369.845 153.53 369.537C153.31 369.23 153.201 368.879 153.204 368.486C153.201 368.178 153.264 367.895 153.392 367.637C153.522 367.377 153.699 367.16 153.921 366.988C154.144 366.812 154.392 366.701 154.667 366.654V366.611C154.305 366.524 154.015 366.329 153.797 366.029C153.579 365.728 153.471 365.382 153.474 364.992C153.471 364.62 153.57 364.289 153.768 363.998C153.97 363.704 154.245 363.473 154.596 363.305C154.946 363.137 155.345 363.053 155.793 363.053C156.235 363.053 156.631 363.138 156.979 363.309C157.329 363.477 157.605 363.708 157.806 364.001C158.007 364.292 158.109 364.623 158.111 364.992C158.109 365.382 157.998 365.728 157.778 366.029C157.557 366.329 157.271 366.524 156.918 366.611V366.654C157.191 366.701 157.436 366.812 157.653 366.988C157.874 367.16 158.049 367.377 158.179 367.637C158.311 367.895 158.379 368.178 158.381 368.486C158.379 368.879 158.268 369.23 158.048 369.537C157.827 369.845 157.522 370.087 157.131 370.262C156.743 370.437 156.297 370.525 155.793 370.525ZM155.793 369.626C156.093 369.626 156.354 369.576 156.574 369.477C156.794 369.375 156.964 369.234 157.085 369.054C157.206 368.872 157.267 368.659 157.27 368.415C157.267 368.162 157.201 367.938 157.071 367.744C156.943 367.55 156.769 367.397 156.549 367.286C156.329 367.175 156.077 367.119 155.793 367.119C155.506 367.119 155.252 367.175 155.029 367.286C154.807 367.397 154.631 367.55 154.503 367.744C154.376 367.938 154.313 368.162 154.315 368.415C154.313 368.659 154.371 368.872 154.489 369.054C154.61 369.234 154.782 369.375 155.004 369.477C155.227 369.576 155.49 369.626 155.793 369.626ZM155.793 366.242C156.034 366.242 156.248 366.193 156.435 366.096C156.622 365.999 156.769 365.864 156.876 365.691C156.985 365.519 157.04 365.316 157.043 365.084C157.04 364.857 156.986 364.658 156.879 364.488C156.775 364.317 156.629 364.186 156.442 364.093C156.255 363.999 156.039 363.951 155.793 363.951C155.542 363.951 155.321 363.999 155.132 364.093C154.945 364.186 154.799 364.317 154.695 364.488C154.591 364.658 154.54 364.857 154.543 365.084C154.54 365.316 154.592 365.519 154.699 365.691C154.805 365.864 154.952 365.999 155.139 366.096C155.329 366.193 155.546 366.242 155.793 366.242ZM162.585 370.546C162.024 370.543 161.545 370.395 161.147 370.102C160.75 369.808 160.445 369.381 160.235 368.82C160.024 368.259 159.919 367.583 159.919 366.792C159.919 366.004 160.024 365.33 160.235 364.772C160.448 364.213 160.753 363.787 161.151 363.493C161.551 363.2 162.029 363.053 162.585 363.053C163.142 363.053 163.619 363.201 164.017 363.497C164.414 363.79 164.719 364.217 164.929 364.775C165.142 365.332 165.249 366.004 165.249 366.792C165.249 367.585 165.143 368.262 164.933 368.824C164.722 369.382 164.418 369.81 164.02 370.105C163.622 370.399 163.144 370.546 162.585 370.546ZM162.585 369.598C163.078 369.598 163.463 369.357 163.74 368.877C164.019 368.396 164.159 367.701 164.159 366.792C164.159 366.189 164.095 365.678 163.967 365.262C163.841 364.843 163.66 364.525 163.424 364.31C163.189 364.092 162.91 363.983 162.585 363.983C162.095 363.983 161.711 364.225 161.431 364.708C161.152 365.191 161.011 365.886 161.009 366.792C161.009 367.398 161.072 367.911 161.197 368.33C161.325 368.747 161.506 369.063 161.74 369.278C161.975 369.491 162.256 369.598 162.585 369.598ZM167.008 370.425V363.152H168.105V366.625H168.194L171.245 363.152H172.626L169.693 366.426L172.637 370.425H171.316L168.965 367.176L168.105 368.163V370.425H167.008Z" fill="#5E6077"/>
<path opacity="0.5" d="M148.744 427.959V418.868H149.326V427.959H148.744ZM150.566 421.688C150.528 421.352 150.372 421.091 150.097 420.907C149.822 420.72 149.477 420.626 149.06 420.626C148.762 420.626 148.504 420.673 148.286 420.768C148.068 420.86 147.899 420.988 147.778 421.152C147.66 421.313 147.6 421.496 147.6 421.702C147.6 421.875 147.641 422.024 147.721 422.15C147.804 422.275 147.912 422.38 148.044 422.466C148.179 422.548 148.324 422.618 148.478 422.675C148.631 422.73 148.779 422.775 148.921 422.81L149.632 422.995C149.864 423.051 150.102 423.128 150.346 423.226C150.589 423.323 150.815 423.45 151.024 423.609C151.232 423.768 151.4 423.964 151.528 424.199C151.658 424.433 151.723 424.713 151.723 425.04C151.723 425.452 151.617 425.818 151.404 426.137C151.193 426.457 150.886 426.709 150.484 426.894C150.084 427.078 149.6 427.171 149.032 427.171C148.487 427.171 148.016 427.084 147.618 426.912C147.221 426.739 146.909 426.494 146.684 426.176C146.459 425.857 146.335 425.478 146.311 425.04H147.412C147.434 425.303 147.519 425.522 147.668 425.697C147.819 425.87 148.012 425.999 148.247 426.084C148.484 426.167 148.743 426.208 149.024 426.208C149.335 426.208 149.61 426.16 149.852 426.063C150.096 425.963 150.288 425.826 150.427 425.651C150.567 425.473 150.637 425.266 150.637 425.029C150.637 424.814 150.575 424.638 150.452 424.5C150.331 424.363 150.167 424.249 149.958 424.159C149.752 424.069 149.519 423.99 149.259 423.922L148.399 423.687C147.817 423.529 147.355 423.295 147.015 422.988C146.676 422.68 146.507 422.273 146.507 421.766C146.507 421.347 146.62 420.981 146.848 420.669C147.075 420.356 147.383 420.114 147.771 419.941C148.159 419.766 148.597 419.678 149.085 419.678C149.577 419.678 150.012 419.764 150.388 419.937C150.767 420.11 151.065 420.348 151.283 420.651C151.501 420.952 151.614 421.297 151.624 421.688H150.566ZM155.874 427.15C155.55 427.145 155.23 427.086 154.915 426.972C154.603 426.858 154.319 426.669 154.063 426.404C153.807 426.139 153.603 425.782 153.449 425.335C153.297 424.887 153.222 424.329 153.222 423.659C153.222 423.024 153.284 422.461 153.41 421.968C153.538 421.476 153.721 421.06 153.96 420.722C154.199 420.381 154.488 420.122 154.827 419.944C155.165 419.767 155.545 419.678 155.967 419.678C156.4 419.678 156.785 419.763 157.121 419.934C157.457 420.104 157.729 420.34 157.937 420.64C158.148 420.941 158.282 421.283 158.339 421.667H157.256C157.182 421.364 157.037 421.116 156.819 420.924C156.601 420.733 156.317 420.637 155.967 420.637C155.434 420.637 155.018 420.869 154.72 421.333C154.424 421.797 154.275 422.442 154.273 423.268H154.326C154.451 423.062 154.605 422.887 154.788 422.743C154.972 422.596 155.178 422.483 155.405 422.405C155.635 422.325 155.877 422.284 156.13 422.284C156.551 422.284 156.932 422.387 157.273 422.593C157.617 422.797 157.89 423.079 158.094 423.439C158.297 423.798 158.399 424.21 158.399 424.674C158.399 425.138 158.294 425.559 158.083 425.935C157.875 426.311 157.581 426.61 157.202 426.83C156.824 427.048 156.381 427.154 155.874 427.15ZM155.871 426.226C156.15 426.226 156.4 426.158 156.62 426.02C156.84 425.883 157.014 425.698 157.142 425.466C157.27 425.234 157.334 424.975 157.334 424.689C157.334 424.409 157.271 424.155 157.146 423.925C157.022 423.695 156.852 423.513 156.634 423.378C156.419 423.243 156.173 423.176 155.896 423.176C155.685 423.176 155.49 423.216 155.31 423.297C155.132 423.377 154.976 423.488 154.841 423.63C154.706 423.772 154.599 423.936 154.521 424.12C154.445 424.303 154.408 424.496 154.408 424.699C154.408 424.971 154.47 425.224 154.596 425.456C154.724 425.688 154.898 425.875 155.118 426.017C155.34 426.156 155.591 426.226 155.871 426.226ZM162.625 427.171C162.063 427.168 161.584 427.02 161.186 426.727C160.789 426.433 160.484 426.006 160.274 425.445C160.063 424.884 159.958 424.208 159.958 423.417C159.958 422.629 160.063 421.955 160.274 421.397C160.487 420.838 160.792 420.412 161.19 420.118C161.59 419.825 162.068 419.678 162.625 419.678C163.181 419.678 163.658 419.826 164.056 420.122C164.453 420.415 164.758 420.842 164.968 421.4C165.181 421.957 165.288 422.629 165.288 423.417C165.288 424.21 165.183 424.887 164.972 425.449C164.761 426.007 164.457 426.435 164.059 426.73C163.661 427.024 163.183 427.171 162.625 427.171ZM162.625 426.223C163.117 426.223 163.502 425.982 163.779 425.502C164.058 425.021 164.198 424.326 164.198 423.417C164.198 422.814 164.134 422.303 164.006 421.887C163.88 421.468 163.699 421.15 163.463 420.935C163.228 420.717 162.949 420.608 162.625 420.608C162.134 420.608 161.75 420.85 161.47 421.333C161.191 421.816 161.05 422.511 161.048 423.417C161.048 424.023 161.111 424.536 161.236 424.955C161.364 425.372 161.545 425.688 161.779 425.903C162.014 426.116 162.295 426.223 162.625 426.223ZM167.047 427.05V419.777H168.144V423.25H168.233L171.284 419.777H172.665L169.732 423.051L172.676 427.05H171.355L169.004 423.801L168.144 424.788V427.05H167.047Z" fill="#5E6077"/>
<line x1="176.8" y1="309.925" x2="929.8" y2="309.925" stroke="#F0F0F0" stroke-width="0.75"/>
<line x1="176.8" y1="365.8" x2="929.8" y2="365.8" stroke="#F0F0F0" stroke-width="0.75"/>
<line x1="176.8" y1="421.675" x2="929.8" y2="421.675" stroke="#F0F0F0" stroke-width="0.75"/>
<path d="M180.549 423.8L298.999 421.221L420.422 433.3L558.878 408.222" stroke="#FFB700" stroke-width="1.5" stroke-linejoin="round"/>
<path d="M180.549 406.368L298.999 402.133L419.512 375.247H559.837" stroke="#7A22A3" stroke-width="1.5" stroke-linejoin="round"/>
</g>
<path d="M133 251.375H552.625V445.625H121.375V263C121.375 256.58 126.58 251.375 133 251.375Z" stroke="#DFE1F4" stroke-width="0.75"/>
<ellipse cx="120.241" cy="76.2422" rx="6.64146" ry="6.64145" fill="#EE6A42"/>
<ellipse cx="140.724" cy="76.2422" rx="6.64146" ry="6.64145" fill="#FADA5E"/>
<ellipse cx="161.207" cy="76.2422" rx="6.64146" ry="6.64145" fill="#7BE0AD"/>
</g>
<defs>
<clipPath id="clip0_4034_74373">
<rect width="552.5" height="444" fill="white"/>
</clipPath>
<clipPath id="clip1_4034_74373">
<path d="M121 263C121 256.373 126.373 251 133 251H553V446H121V263Z" fill="white"/>
</clipPath>
</defs>
</svg>
